<svg version="1.1" viewBox="0.0 0.0 650.2125984251968 231.8031496062992" fill="none" stroke="none" stroke-linecap="square" stroke-miterlimit="10" xmlns:xlink="http://www.w3.org/1999/xlink" xmlns="http://www.w3.org/2000/svg"><clipPath id="p.0"><path d="m0 0l650.2126 0l0 231.80315l-650.2126 0l0 -231.80315z" clip-rule="nonzero"/></clipPath><g clip-path="url(#p.0)"><path fill="#ffffff" d="m0 0l650.2126 0l0 231.80315l-650.2126 0z" fill-rule="evenodd"/><path shape-rendering="crispEdges" fill="#cc0000" d="m8.884515 40.19685l105.89764 0l0 19.0l-105.89764 0l0 -19.0z" fill-rule="nonzero"/><path shape-rendering="crispEdges" fill="#ffffff" d="m114.78215 40.19685l43.11287 0l0 19.0l-43.11287 0l0 -19.0z" fill-rule="nonzero"/><path shape-rendering="crispEdges" fill="#e69138" d="m157.89502 40.19685l85.27821 0l0 19.0l-85.27821 0l0 -19.0z" fill-rule="nonzero"/><path shape-rendering="crispEdges" fill="#f1c232" d="m243.17323 40.19685l149.14699 0l0 19.0l-149.14699 0l0 -19.0z" fill-rule="nonzero"/><path shape-rendering="crispEdges" fill="#00b26a" d="m392.32022 40.19685l65.30707 0l0 19.0l-65.30707 0l0 -19.0z" fill-rule="nonzero"/><path shape-rendering="crispEdges" fill="#3c78d8" d="m457.6273 40.19685l185.34122 0l0 19.0l-185.34122 0l0 -19.0z" fill-rule="nonzero"/><path shape-rendering="crispEdges" fill="#6b5353" d="m8.884515 59.19685l105.89764 0l0 81.595795l-105.89764 0l0 -81.595795z" fill-rule="nonzero"/><path shape-rendering="crispEdges" fill="#ffffff" d="m114.78215 59.19685l43.11287 0l0 40.000004l-43.11287 0l0 -40.000004z" fill-rule="nonzero"/><path shape-rendering="crispEdges" fill="#6b5353" d="m157.89502 59.19685l85.27821 0l0 40.000004l-85.27821 0l0 -40.000004z" fill-rule="nonzero"/><path shape-rendering="crispEdges" fill="#6b5353" d="m243.17323 59.19685l149.14699 0l0 40.000004l-149.14699 0l0 -40.000004z" fill-rule="nonzero"/><path shape-rendering="crispEdges" fill="#6b5353" d="m392.32022 59.19685l65.30707 0l0 81.595795l-65.30707 0l0 -81.595795z" fill-rule="nonzero"/><path shape-rendering="crispEdges" fill="#6b5353" d="m457.6273 59.19685l185.34122 0l0 123.191605l-185.34122 0l0 -123.191605z" fill-rule="nonzero"/><path shape-rendering="crispEdges" fill="#ffffff" d="m114.78215 99.19685l43.11287 0l0 41.595795l-43.11287 0l0 -41.595795z" fill-rule="nonzero"/><path shape-rendering="crispEdges" fill="#6b5353" d="m157.89502 99.19685l234.4252 0l0 41.595795l-234.4252 0l0 -41.595795z" fill-rule="nonzero"/><path shape-rendering="crispEdges" fill="#ff668a" d="m8.884515 140.79265l448.74277 0l0 41.59581l-448.74277 0l0 -41.59581z" fill-rule="nonzero"/><path shape-rendering="crispEdges" fill="#6b5353" d="m8.884515 182.38846l634.084 0l0 41.595795l-634.084 0l0 -41.595795z" fill-rule="nonzero"/><path stroke="#ffffff" stroke-width="8.0" stroke-linecap="butt" d="m8.884515 36.19685l0 191.7874" fill-rule="nonzero"/><path stroke="#ffffff" stroke-width="8.0" stroke-linecap="butt" d="m114.78215 36.19685l0 108.595795" fill-rule="nonzero"/><path stroke="#ffffff" stroke-width="8.0" stroke-linecap="butt" d="m157.89502 36.19685l0 108.595795" fill-rule="nonzero"/><path stroke="#ffffff" stroke-width="8.0" stroke-linecap="butt" d="m243.17323 36.19685l0 67.0" fill-rule="nonzero"/><path stroke="#ffffff" stroke-width="8.0" stroke-linecap="butt" d="m392.32022 36.19685l0 108.595795" fill-rule="nonzero"/><path stroke="#ffffff" stroke-width="8.0" stroke-linecap="butt" d="m457.6273 36.19685l0 150.1916" fill-rule="nonzero"/><path stroke="#ffffff" stroke-width="8.0" stroke-linecap="butt" d="m642.9685 36.19685l0 191.7874" fill-rule="nonzero"/><path stroke="#ffffff" stroke-width="8.0" stroke-linecap="butt" d="m4.8845143 40.19685l642.084 0" fill-rule="nonzero"/><path stroke="#ffffff" stroke-width="8.0" stroke-linecap="butt" d="m4.8845143 59.19685l642.084 0" fill-rule="nonzero"/><path stroke="#ffffff" stroke-width="8.0" stroke-linecap="butt" d="m110.78215 99.19685l285.5381 0" fill-rule="nonzero"/><path stroke="#ffffff" stroke-width="8.0" stroke-linecap="butt" d="m4.8845143 140.79265l456.74277 0" fill-rule="nonzero"/><path stroke="#ffffff" stroke-width="8.0" stroke-linecap="butt" d="m4.8845143 182.38846l642.084 0" fill-rule="nonzero"/><path stroke="#ffffff" stroke-width="8.0" stroke-linecap="butt" d="m4.8845143 223.98425l642.084 0" fill-rule="nonzero"/><path fill="#ffffff" d="m40.583332 99.77663q2.453125 1.875 5.34375 4.828125l-1.765625 1.5q-2.8125 -2.953125 -5.0 -4.640625q-2.25 2.4375 -5.625 4.65625l-1.6875 -1.515625q6.890625 -4.484375 8.515625 -8.21875l-6.578125 0.421875l-0.28125 -2.15625l7.578125 -0.328125l0.890625 -0.21875l1.140625 1.125q0.875 0.875 -0.28125 1.09375q-1.109375 1.953125 -2.25 3.453125zm20.5625 1.15625l-5.796875 0.625l1.171875 5.03125l-2.015625 0.453125l-1.1875 -5.21875l-6.40625 0.75l-0.28125 -1.96875l6.234375 -0.671875l-0.5 -2.296875l-4.25 0.5l-0.375 -1.953125l4.125 -0.4375l-0.625 -2.859375l1.65625 -0.3125q1.328125 -0.140625 0.578125 0.84375l0.421875 2.0625l4.5625 -0.640625l0.375 1.96875l-4.4375 0.5625l0.5 2.296875l5.875 -0.6875l0.375 1.953125zm0.84375 -0.203125l0 -2.03125l14.593754 0l0 2.03125l-14.593754 0zm15.328129 2.234375l2.84375 -0.078125q2.15625 -4.65625 3.421875 -10.03125l1.8125 0.625q1.203125 0.796875 0 1.125q-1.140625 4.28125 -2.921875 8.125l5.328125 -0.25q-0.921875 -1.25 -1.921875 -2.3125l1.796875 -1.265625q2.34375 2.546875 4.453125 5.96875l-1.90625 1.3125l-1.078125 -1.75l-10.140625 0.78125q-0.65625 1.125 -1.0625 -0.21875l-0.625 -2.03125z" fill-rule="nonzero"/><path fill="#ffffff" d="m185.75287 79.82248q-0.875 1.9375 -2.5 4.46875l-1.96875 -1.078125q1.765625 -2.515625 2.953125 -5.328125l1.71875 0.953125q0.921875 0.765625 -0.203125 0.984375zm1.5625 -7.984375l1.671875 0q1.515625 0.28125 0.421875 1.0l0 2.5l5.75 0l0 2.03125l-5.75 0l0 8.6875l-2.09375 0l0 -8.6875l-5.625 0l0 -2.03125l5.625 0l0 -3.5zm6.65625 12.296875q-1.46875 -2.578125 -3.546875 -4.8125l1.6875 -1.421875q2.484375 2.625 3.78125 4.921875l-1.921875 1.3125zm10.6875 -5.15625q2.453125 1.875 5.34375 4.828125l-1.765625 1.5q-2.8125 -2.953125 -5.0 -4.640625q-2.25 2.4375 -5.625 4.65625l-1.6875 -1.515625q6.890625 -4.484375 8.515625 -8.21875l-6.578125 0.421875l-0.28125 -2.15625l7.578125 -0.328125l0.890625 -0.21875l1.140625 1.125q0.875 0.875 -0.28125 1.09375q-1.109375 1.953125 -2.25 3.453125zm9.375 -2.0q2.84375 0.8125 6.3125 2.46875l-1.0625 2.03125q-3.578125 -1.8125 -5.25 -2.265625l0 6.40625l-2.09375 0l0 -13.15625l1.59375 0q1.59375 0.140625 0.5 0.984375l0 3.53125z" fill-rule="nonzero"/><path fill="#ffffff" d="m302.05923 81.47873q-3.578125 -1.8125 -5.25 -2.265625l0 6.40625l-2.09375 0l0 -13.15625l1.59375 0q1.59375 0.140625 0.5 0.984375l0 3.53125q2.84375 0.8125 6.3125 2.46875l-1.0625 2.03125zm-0.3125 -5.484375q-1.25 -1.53125 -2.625 -2.578125l1.359375 -1.03125q1.296875 0.984375 2.59375 2.59375l-1.328125 1.015625zm1.484375 -1.1875q-0.984375 -1.28125 -2.53125 -2.515625l1.328125 -1.03125q1.3125 0.921875 2.53125 2.53125l-1.328125 1.015625zm1.4375 8.796875q4.140625 -2.25 5.609375 -4.515625q-1.453125 -0.875 -3.0625 -1.578125l1.0625 -1.953125q1.671875 0.75 3.125 1.59375q0.703125 -1.46875 1.390625 -4.84375l1.84375 0.609375q1.25 0.359375 0.125 0.921875q-0.78125 3.015625 -1.546875 4.46875q1.265625 0.84375 2.4375 1.78125l-1.140625 2.015625q-1.546875 -1.296875 -2.390625 -1.859375q-2.171875 2.921875 -5.609375 5.015625l-1.84375 -1.65625zm11.703125 -3.5625q6.890625 -2.890625 10.421875 -8.109375l1.453125 1.234375q1.078125 0.796875 -0.453125 1.109375q-1.140625 1.484375 -2.921875 3.046875l0 8.671875l-2.09375 0l0 -6.96875q-1.6875 1.296875 -4.890625 2.796875l-1.515625 -1.78125zm26.21875 -2.671875q-3.53125 7.296875 -11.3125 7.671875q-0.515625 1.34375 -1.171875 -0.078125l-0.625 -2.046875q8.34375 -0.203125 11.234375 -6.875l1.875 1.328125zm-9.21875 0.5625q-1.90625 -1.75 -3.6875 -2.9375l1.46875 -1.828125q1.59375 0.984375 3.859375 3.125l-1.640625 1.640625z" fill-rule="nonzero"/><path fill="#ffffff" d="m417.80188 94.6985q0.359375 0 0.578125 -0.21875q0.21875 -0.21875 0.21875 -0.578125q0 -0.359375 -0.21875 -0.578125q-0.21875 -0.21875 -0.578125 -0.21875q-0.359375 0 -0.578125 0.21875q-0.21875 0.21875 -0.21875 0.578125q0 0.359375 0.21875 0.578125q0.21875 0.21875 0.578125 0.21875zm0 1.28125q-0.890625 0 -1.484375 -0.59375q-0.59375 -0.59375 -0.59375 -1.484375q0 -0.890625 0.59375 -1.484375q0.59375 -0.59375 1.484375 -0.59375q0.890625 0 1.484375 0.59375q0.59375 0.59375 0.59375 1.484375q0 0.890625 -0.59375 1.484375q-0.59375 0.59375 -1.484375 0.59375zm-2.09375 2.71875q2.484375 2.625 3.78125 4.921875l-1.921875 1.3125q-1.46875 -2.578125 -3.546875 -4.8125l1.6875 -1.421875zm-2.703125 -2.5625l5.75 0l0 2.03125l-5.75 0l0 8.6875l-2.09375 0l0 -8.6875l-5.625 0l0 -2.03125l5.625 0l0 -3.5l1.671875 0q1.515625 0.28125 0.421875 1.0l0 2.5zm-3.453125 3.5q0.921875 0.765625 -0.203125 0.984375q-0.875 1.9375 -2.5 4.46875l-1.96875 -1.078125q1.765625 -2.515625 2.953125 -5.328125l1.71875 0.953125zm10.921875 1.09375l0 -2.03125l14.59375 0l0 2.03125l-14.59375 0zm18.71875 -2.953125q2.84375 0.8125 6.3125 2.46875l-1.0625 2.03125q-3.578125 -1.8125 -5.25 -2.265625l0 6.40625l-2.09375 0l0 -13.15625l1.59375 0q1.59375 0.140625 0.5 0.984375l0 3.53125z" fill-rule="nonzero"/><path fill="#ffffff" d="m548.6573 117.21516q-0.890625 0 -1.484375 -0.59375q-0.59375 -0.59375 -0.59375 -1.484375q0 -0.890625 0.59375 -1.484375q0.59375 -0.59375 1.484375 -0.59375q0.890625 0 1.484375 0.59375q0.59375 0.59375 0.59375 1.484375q0 0.890625 -0.59375 1.484375q-0.59375 0.59375 -1.484375 0.59375zm0 -1.28125q0.359375 0 0.578125 -0.21875q0.21875 -0.21875 0.21875 -0.578125q0 -0.359375 -0.21875 -0.578125q-0.21875 -0.21875 -0.578125 -0.21875q-0.359375 0 -0.578125 0.21875q-0.21875 0.21875 -0.21875 0.578125q0 0.359375 0.21875 0.578125q0.21875 0.21875 0.578125 0.21875zm-2.4375 0.1875q3.359375 4.234375 4.78125 8.96875l-2.3125 0.78125q-1.640625 -5.203125 -4.3125 -8.34375l1.84375 -1.40625zm-4.65625 1.59375q1.0625 0.671875 -0.015625 1.109375q-1.09375 3.84375 -3.8125 7.375l-2.0 -1.296875q2.9375 -3.546875 3.9375 -8.046875l1.890625 0.859375zm18.671875 2.859375q2.453125 1.875 5.34375 4.828125l-1.765625 1.5q-2.8125 -2.953125 -5.0 -4.640625q-2.25 2.4375 -5.625 4.65625l-1.6875 -1.515625q6.890625 -4.484375 8.515625 -8.21875l-6.578125 0.421875l-0.28125 -2.15625l7.578125 -0.328125l0.890625 -0.21875l1.140625 1.125q0.875 0.875 -0.28125 1.09375q-1.109375 1.953125 -2.25 3.453125z" fill-rule="nonzero"/><path fill="#ffffff" d="m262.21307 121.1985l-4.5 0l0 4.65625l-2.3437347 0l0 -11.375l7.4062347 0l0 1.890625l-5.0625 0l0 2.9375l4.5 0l0 1.890625zm11.25 -0.78125q0 1.59375 -0.515625 2.78125q-0.515625 1.171875 -1.421875 1.875l1.890625 1.5l-1.5 1.3125l-2.421875 -1.9375q-0.40625 0.0625 -0.859375 0.0625q-1.40625 0 -2.515625 -0.671875q-1.109375 -0.6875 -1.71875 -1.953125q-0.609375 -1.265625 -0.625 -2.90625l0 -0.5625q0 -1.671875 0.609375 -2.953125q0.609375 -1.28125 1.703125 -1.953125q1.109375 -0.6875 2.53125 -0.6875q1.421875 0 2.53125 0.6875q1.109375 0.671875 1.703125 1.953125q0.609375 1.28125 0.609375 2.953125l0 0.5zm-2.375 -0.515625q0 -1.78125 -0.640625 -2.703125q-0.640625 -0.9375 -1.828125 -0.9375q-1.171875 0 -1.8125 0.921875q-0.640625 0.90625 -0.65625 2.6875l0 0.546875q0 1.75 0.640625 2.71875q0.640625 0.953125 1.84375 0.953125q1.1875 0 1.8125 -0.921875q0.640625 -0.9375 0.640625 -2.703125l0 -0.5625zm4.09375 5.953125l0 -11.375l3.5 0q1.5 0 2.6875 0.671875q1.1875 0.671875 1.84375 1.921875q0.671875 1.25 0.671875 2.828125l0 0.53125q0 1.578125 -0.65625 2.8125q-0.65625 1.234375 -1.84375 1.921875q-1.1875 0.671875 -2.671875 0.6875l-3.53125 0zm2.34375 -9.484375l0 7.59375l1.140625 0q1.375 0 2.09375 -0.890625q0.734375 -0.90625 0.75 -2.578125l0 -0.59375q0 -1.734375 -0.71875 -2.625q-0.71875 -0.90625 -2.109375 -0.90625l-1.15625 0zm17.304688 9.484375l-2.34375 0l-4.5625 -7.484375l0 7.484375l-2.34375 0l0 -11.375l2.34375 0l4.578125 7.5l0 -7.5l2.328125 0l0 11.375z" fill-rule="nonzero"/><path fill="#ffffff" d="m205.8809 165.45055q4.3125 -2.75 6.203125 -5.75l-5.609375 0l0 -2.03125l6.625 0l0 -3.4375l1.671875 0q1.25 0.28125 0.421875 0.984375l0 2.453125l5.25 0l0 2.03125l-5.25 0l0 6.984375q0 1.828125 -1.765625 1.828125l-2.03125 0l-0.359375 -2.03125l1.609375 0q0.453125 -0.078125 0.453125 -0.484375l0 -4.1875q-1.8125 2.671875 -5.453125 5.234375l-1.765625 -1.59375zm25.125 -3.828125q0 4.890625 -4.75 7.140625l-1.8125 -1.53125q4.40625 -2.015625 4.46875 -5.671875l0 -6.578125l1.671875 0q1.375 0.28125 0.421875 1.0l0 5.640625zm-6.4375 1.703125l-2.09375 0l0 -7.71875l1.71875 0q1.453125 0.140625 0.375 0.984375l0 6.734375zm22.28125 -3.1875q-3.390625 5.453125 -10.015625 7.546875q-0.328125 1.328125 -1.1875 -0.015625l-1.125 -1.765625q7.140625 -1.578125 10.71875 -7.375l1.609375 1.609375zm-9.984375 2.1875q-2.109375 -1.546875 -3.671875 -2.328125l1.328125 -1.859375q1.828125 0.953125 3.75 2.359375l-1.40625 1.828125zm1.90625 -3.671875q-1.953125 -1.375 -3.671875 -2.34375l1.15625 -1.875q1.96875 1.09375 3.75 2.359375l-1.234375 1.859375zm5.078125 -5.140625q1.296875 0.984375 2.59375 2.359375l-1.28125 1.296875q-1.328125 -1.484375 -2.625 -2.453125l1.3125 -1.203125zm-1.484375 1.0625q1.28125 1.0625 2.59375 2.4375l-1.296875 1.203125q-1.265625 -1.359375 -2.6875 -2.53125l1.390625 -1.109375zm18.35936 5.1875q-3.53125 7.296875 -11.312485 7.671875q-0.515625 1.34375 -1.171875 -0.078125l-0.625 -2.046875q8.34375 -0.203125 11.23436 -6.875l1.875 1.328125zm-9.218735 0.5625q-1.90625 -1.75 -3.6875 -2.9375l1.46875 -1.828125q1.59375 0.984375 3.859375 3.125l-1.640625 1.640625z" fill-rule="nonzero"/><path fill="#ffffff" d="m320.8484 197.67136l0 7.484375q0 1.875 -1.171875 2.96875q-1.15625 1.078125 -3.1875 1.078125q-1.984375 0 -3.15625 -1.046875q-1.171875 -1.0625 -1.203125 -2.90625l0 -7.578125l2.34375 0l0 7.5q0 1.125 0.53125 1.640625q0.546875 0.5 1.484375 0.5q1.984375 0 2.015625 -2.078125l0 -7.5625l2.34375 0zm6.140625 7.203125l-1.875 0l0 4.171875l-2.34375 0l0 -11.375l4.234375 0q2.015625 0 3.109375 0.90625q1.09375 0.890625 1.09375 2.53125q0 1.15625 -0.515625 1.9375q-0.5 0.78125 -1.515625 1.234375l2.453125 4.65625l0 0.109375l-2.515625 0l-2.125 -4.171875zm-1.875 -1.890625l1.890625 0q0.890625 0 1.375 -0.453125q0.484375 -0.453125 0.484375 -1.234375q0 -0.8125 -0.46875 -1.265625q-0.453125 -0.46875 -1.390625 -0.46875l-1.890625 0l0 3.421875zm10.2109375 4.171875l4.984375 0l0 1.890625l-7.328125 0l0 -11.375l2.34375 0l0 9.484375z" fill-rule="nonzero"/><path fill="#000000" fill-opacity="0.0" d="m6.007874 -5.3543305l781.98425 0l0 53.54331l-781.98425 0z" fill-rule="evenodd"/><path fill="#cc0000" d="m21.273499 19.116919l0 -9.031251l-4.15625 0l0 23.0l4.15625 0l0 -11.687498q0.25 -0.3125 0.53125 -0.5625q0.296875 -0.265625 0.65625 -0.4375q0.390625 -0.21875 0.859375 -0.3125q0.484375 -0.109375 1.046875 -0.109375q0.71875 0 1.28125 0.1875q0.578125 0.1875 0.96875 0.578125q0.40625 0.390625 0.625 1.015625q0.21875 0.625 0.21875 1.5l0 9.828123l4.15625 0l0 -9.796873q0 -1.78125 -0.421875 -3.046875q-0.421875 -1.265625 -1.1875 -2.078125q-0.765625 -0.8125 -1.828125 -1.1875q-1.0625 -0.390625 -2.328125 -0.390625q-0.875 0 -1.65625 0.265625q-0.78125 0.25 -1.421875 0.71875q-0.421875 0.296875 -0.796875 0.6875q-0.375 0.390625 -0.703125 0.859375zm21.881119 -6.187501l-4.171875 0l0 3.953126l-3.6875 0l0 3.078125l3.6875 0l0 7.359375q0 1.609375 0.421875 2.75q0.421875 1.140625 1.203125 1.875q0.765625 0.7499981 1.84375 1.1093731q1.09375 0.34375 2.421875 0.34375q0.6875 0 1.390625 -0.078125q0.71875 -0.0625 1.375 -0.171875q0.65625 -0.125 1.234375 -0.3125q0.59375 -0.1875 1.03125 -0.4375l-0.40625 -2.859373q-0.28125 0.078125 -0.6875 0.15625q-0.390625 0.0625 -0.84375 0.125q-0.46875 0.078125 -0.96875 0.125q-0.5 0.046875 -0.96875 0.046875q-0.671875 0 -1.203125 -0.140625q-0.53125 -0.15625 -0.90625 -0.515625q-0.359375 -0.34375 -0.5625 -0.9375q-0.203125 -0.59375 -0.203125 -1.484375l0 -6.953125l6.046875 0l0 -3.078125l-6.046875 0l0 -3.953126zm18.396744 0l-4.171875 0l0 3.953126l-3.6875 0l0 3.078125l3.6875 0l0 7.359375q0 1.609375 0.421875 2.75q0.421875 1.140625 1.203125 1.875q0.765625 0.7499981 1.84375 1.1093731q1.09375 0.34375 2.421875 0.34375q0.6875 0 1.390625 -0.078125q0.71875 -0.0625 1.375 -0.171875q0.65625 -0.125 1.234375 -0.3125q0.59375 -0.1875 1.03125 -0.4375l-0.40625 -2.859373q-0.28125 0.078125 -0.6875 0.15625q-0.390625 0.0625 -0.84375 0.125q-0.46875 0.078125 -0.96875 0.125q-0.5 0.046875 -0.96875 0.046875q-0.671875 0 -1.203125 -0.140625q-0.53125 -0.15625 -0.90625 -0.515625q-0.359375 -0.34375 -0.5625 -0.9375q-0.203125 -0.59375 -0.203125 -1.484375l0 -6.953125l6.046875 0l0 -3.078125l-6.046875 0l0 -3.953126zm10.818619 26.390625l4.15625 0l0 -7.640623q0.28125 0.3125 0.59375 0.5781231q0.328125 0.25 0.671875 0.453125q0.578125 0.328125 1.25 0.5q0.6875 0.171875 1.5 0.171875q1.53125 0 2.703125 -0.625q1.1875 -0.625 2.0 -1.7343731q0.796875 -1.09375 1.203125 -2.609375q0.40625 -1.515625 0.40625 -3.28125l0 -0.3125q0 -1.84375 -0.40625 -3.359375q-0.40625 -1.515625 -1.21875 -2.609375q-0.8125 -1.078125 -2.0 -1.671875q-1.171875 -0.59375 -2.71875 -0.59375q-0.75 0 -1.40625 0.15625q-0.640625 0.15625 -1.1875 0.453125q-0.4375 0.234375 -0.828125 0.5625q-0.390625 0.3125 -0.71875 0.71875l-0.15625 -1.59375l-3.84375 0l0 22.437498zm10.328125 -14.499998l0 0.3125q0 1.0 -0.1875 1.890625q-0.171875 0.890625 -0.5625 1.578125q-0.390625 0.671875 -1.015625 1.0625q-0.609375 0.390625 -1.5 0.390625q-0.546875 0 -1.0 -0.109375q-0.453125 -0.125 -0.796875 -0.328125q-0.359375 -0.234375 -0.640625 -0.546875q-0.265625 -0.3125 -0.46875 -0.703125l0 -6.765625q0.21875 -0.421875 0.5 -0.734375q0.296875 -0.3125 0.6875 -0.515625q0.34375 -0.1875 0.765625 -0.28125q0.421875 -0.09375 0.921875 -0.09375q0.890625 0 1.5 0.375q0.625 0.375 1.03125 1.015625q0.390625 0.65625 0.578125 1.546875q0.1875 0.890625 0.1875 1.90625zm18.459244 3.8125q0 0.375 -0.1875 0.703125q-0.1875 0.3125 -0.5625 0.546875q-0.390625 0.234375 -1.0 0.390625q-0.609375 0.140625 -1.40625 0.140625q-0.671875 0 -1.3125 -0.140625q-0.640625 -0.140625 -1.140625 -0.4375q-0.484375 -0.28125 -0.796875 -0.75q-0.3125 -0.46875 -0.359375 -1.140625l-3.96875 0q0 1.0 0.484375 1.984375q0.484375 0.96875 1.4375 1.734375q0.9375 0.7812481 2.328125 1.2656231q1.40625 0.46875 3.234375 0.46875q1.65625 0 3.0 -0.359375q1.359375 -0.375 2.3125 -1.03125q0.9375 -0.6562481 1.453125 -1.5624981q0.515625 -0.90625 0.515625 -1.984375q0 -1.171875 -0.515625 -2.015625q-0.515625 -0.84375 -1.421875 -1.4375q-0.921875 -0.59375 -2.171875 -0.96875q-1.25 -0.375 -2.71875 -0.609375q-1.03125 -0.140625 -1.6875 -0.34375q-0.65625 -0.203125 -1.03125 -0.46875q-0.390625 -0.234375 -0.546875 -0.53125q-0.140625 -0.3125 -0.140625 -0.671875q0 -0.359375 0.171875 -0.671875q0.171875 -0.328125 0.5 -0.578125q0.359375 -0.265625 0.921875 -0.40625q0.578125 -0.15625 1.34375 -0.15625q0.890625 0 1.53125 0.234375q0.640625 0.21875 1.015625 0.59375q0.265625 0.28125 0.390625 0.640625q0.140625 0.34375 0.140625 0.75l4.171875 0q0 -1.125 -0.5 -2.078125q-0.5 -0.96875 -1.421875 -1.671875q-0.9375 -0.6875 -2.296875 -1.078125q-1.34375 -0.40625 -3.03125 -0.40625q-1.625 0 -2.90625 0.40625q-1.28125 0.40625 -2.1875 1.09375q-0.890625 0.6875 -1.375 1.609375q-0.484375 0.90625 -0.484375 1.90625q0 1.03125 0.46875 1.828125q0.484375 0.796875 1.3125 1.390625q0.84375 0.609375 2.015625 1.046875q1.171875 0.421875 2.59375 0.703125q1.125 0.21875 1.859375 0.4375q0.734375 0.203125 1.1875 0.4375q0.4375 0.25 0.609375 0.546875q0.171875 0.28125 0.171875 0.640625z" fill-rule="nonzero"/><path fill="#6b5353" d="m113.50722 30.679419q0 1.15625 0.78125 1.9374981q0.78125 0.765625 2.109375 0.765625q1.3125 0 2.09375 -0.765625q0.796875 -0.7812481 0.796875 -1.9374981q0 -1.171875 -0.78125 -1.96875q-0.765625 -0.796875 -2.109375 -0.796875q-1.359375 0 -2.125 0.8125q-0.765625 0.796875 -0.765625 1.953125zm0 -12.359375q0 1.15625 0.78125 1.9375q0.78125 0.765625 2.109375 0.765625q1.3125 0 2.09375 -0.765625q0.796875 -0.78125 0.796875 -1.9375q0 -1.171875 -0.78125 -1.96875q-0.765625 -0.79687595 -2.109375 -0.79687595q-1.359375 0 -2.125 0.81250095q-0.765625 0.796875 -0.765625 1.953125zm19.052994 16.640623l8.15625 -23.671875l-3.875 0l-8.15625 23.671875l3.875 0zm18.396744 0l8.15625 -23.671875l-3.875 0l-8.15625 23.671875l3.875 0z" fill-rule="nonzero"/><path fill="#e69138" d="m167.3537 33.085667l-5.03125 -15.890623l4.078125 0l2.984375 10.40625l2.734375 -10.40625l4.0625 0l2.640625 10.40625l3.046875 -10.40625l4.140625 0l-5.109375 15.890623l-4.03125 0l-2.75 -10.218748l-2.6875 10.218748l-4.078125 0zm23.845413 0l-5.03125 -15.890623l4.078125 0l2.984375 10.40625l2.734375 -10.40625l4.0625 0l2.640625 10.40625l3.046875 -10.40625l4.140625 0l-5.109375 15.890623l-4.03125 0l-2.75 -10.218748l-2.6875 10.218748l-4.078125 0zm23.845413 0l-5.03125 -15.890623l4.078125 0l2.984375 10.40625l2.734375 -10.40625l4.0625 0l2.640625 10.40625l3.046875 -10.40625l4.140625 0l-5.109375 15.890623l-4.03125 0l-2.75 -10.218748l-2.6875 10.218748l-4.078125 0z" fill-rule="nonzero"/><path fill="#6b5353" d="m240.03056 30.679419q0 1.15625 0.78125 1.9374981q0.78125 0.765625 2.109375 0.765625q1.3125 0 2.09375 -0.765625q0.796875 -0.7812481 0.796875 -1.9374981q0 -1.171875 -0.78125 -1.96875q-0.765625 -0.796875 -2.109375 -0.796875q-1.359375 0 -2.125 0.8125q-0.765625 0.796875 -0.765625 1.953125z" fill-rule="nonzero"/><path fill="#f1c232" d="m264.34918 33.085667l4.21875 0l0 -0.25q-0.3125 -0.625 -0.484375 -1.4687481q-0.15625 -0.859375 -0.15625 -2.15625l0 -6.953125q0 -1.40625 -0.53125 -2.46875q-0.515625 -1.078125 -1.453125 -1.78125q-0.921875 -0.703125 -2.1875 -1.0625q-1.265625 -0.359375 -2.734375 -0.359375q-1.625 0 -2.890625 0.421875q-1.265625 0.40625 -2.140625 1.109375q-0.875 0.703125 -1.34375 1.640625q-0.453125 0.921875 -0.453125 1.953125l4.15625 0q0 -0.4375 0.125 -0.796875q0.140625 -0.359375 0.40625 -0.609375q0.296875 -0.28125 0.765625 -0.4375q0.484375 -0.15625 1.15625 -0.15625q0.75 0 1.296875 0.1875q0.5625 0.171875 0.9375 0.53125q0.359375 0.328125 0.53125 0.78125q0.1875 0.453125 0.1875 1.015625l0 0.96875l-2.3125 0q-1.796875 0 -3.1875 0.328125q-1.375 0.3125 -2.328125 0.921875q-1.046875 0.671875 -1.578125 1.71875q-0.515625 1.046875 -0.515625 2.390625q0 1.046875 0.421875 1.9375q0.421875 0.890625 1.171875 1.5312481q0.75 0.640625 1.78125 1.0q1.046875 0.359375 2.28125 0.359375q0.765625 0 1.421875 -0.140625q0.65625 -0.140625 1.21875 -0.390625q0.53125 -0.25 0.984375 -0.578125q0.453125 -0.3281231 0.796875 -0.7031231q0.078125 0.4374981 0.171875 0.8281231q0.109375 0.390625 0.265625 0.6875zm-3.96875 -2.921873q-0.59375 0 -1.03125 -0.140625q-0.4375 -0.140625 -0.734375 -0.375q-0.296875 -0.265625 -0.46875 -0.625q-0.15625 -0.375 -0.15625 -0.796875q0 -0.5625 0.203125 -1.03125q0.21875 -0.46875 0.65625 -0.8125q0.4375 -0.328125 1.125 -0.515625q0.6875 -0.1875 1.65625 -0.1875l2.125 0l0 2.78125q-0.171875 0.3125 -0.484375 0.625q-0.3125 0.296875 -0.75 0.546875q-0.4375 0.234375 -0.984375 0.390625q-0.53125 0.140625 -1.15625 0.140625zm22.365479 2.921873l4.21875 0l0 -0.25q-0.3125 -0.625 -0.484375 -1.4687481q-0.15625 -0.859375 -0.15625 -2.15625l0 -6.953125q0 -1.40625 -0.53125 -2.46875q-0.515625 -1.078125 -1.453125 -1.78125q-0.921875 -0.703125 -2.1875 -1.0625q-1.265625 -0.359375 -2.734375 -0.359375q-1.625 0 -2.890625 0.421875q-1.265625 0.40625 -2.140625 1.109375q-0.875 0.703125 -1.34375 1.640625q-0.453125 0.921875 -0.453125 1.953125l4.15625 0q0 -0.4375 0.125 -0.796875q0.140625 -0.359375 0.40625 -0.609375q0.296875 -0.28125 0.765625 -0.4375q0.484375 -0.15625 1.15625 -0.15625q0.75 0 1.296875 0.1875q0.5625 0.171875 0.9375 0.53125q0.359375 0.328125 0.53125 0.78125q0.1875 0.453125 0.1875 1.015625l0 0.96875l-2.3125 0q-1.796875 0 -3.1875 0.328125q-1.375 0.3125 -2.328125 0.921875q-1.046875 0.671875 -1.578125 1.71875q-0.515625 1.046875 -0.515625 2.390625q0 1.046875 0.421875 1.9375q0.421875 0.890625 1.171875 1.5312481q0.75 0.640625 1.78125 1.0q1.046875 0.359375 2.28125 0.359375q0.765625 0 1.421875 -0.140625q0.65625 -0.140625 1.21875 -0.390625q0.53125 -0.25 0.984375 -0.578125q0.453125 -0.3281231 0.796875 -0.7031231q0.078125 0.4374981 0.171875 0.8281231q0.109375 0.390625 0.265625 0.6875zm-3.96875 -2.921873q-0.59375 0 -1.03125 -0.140625q-0.4375 -0.140625 -0.734375 -0.375q-0.296875 -0.265625 -0.46875 -0.625q-0.15625 -0.375 -0.15625 -0.796875q0 -0.5625 0.203125 -1.03125q0.21875 -0.46875 0.65625 -0.8125q0.4375 -0.328125 1.125 -0.515625q0.6875 -0.1875 1.65625 -0.1875l2.125 0l0 2.78125q-0.171875 0.3125 -0.484375 0.625q-0.3125 0.296875 -0.75 0.546875q-0.4375 0.234375 -0.984375 0.390625q-0.53125 0.140625 -1.15625 0.140625zm22.365509 2.921873l4.21875 0l0 -0.25q-0.3125 -0.625 -0.484375 -1.4687481q-0.15625 -0.859375 -0.15625 -2.15625l0 -6.953125q0 -1.40625 -0.53125 -2.46875q-0.515625 -1.078125 -1.453125 -1.78125q-0.921875 -0.703125 -2.1875 -1.0625q-1.265625 -0.359375 -2.734375 -0.359375q-1.625 0 -2.890625 0.421875q-1.265625 0.40625 -2.140625 1.109375q-0.875 0.703125 -1.34375 1.640625q-0.453125 0.921875 -0.453125 1.953125l4.15625 0q0 -0.4375 0.125 -0.796875q0.140625 -0.359375 0.40625 -0.609375q0.296875 -0.28125 0.765625 -0.4375q0.484375 -0.15625 1.15625 -0.15625q0.75 0 1.296875 0.1875q0.5625 0.171875 0.9375 0.53125q0.359375 0.328125 0.53125 0.78125q0.1875 0.453125 0.1875 1.015625l0 0.96875l-2.3125 0q-1.796875 0 -3.1875 0.328125q-1.375 0.3125 -2.328125 0.921875q-1.046875 0.671875 -1.578125 1.71875q-0.515625 1.046875 -0.515625 2.390625q0 1.046875 0.421875 1.9375q0.421875 0.890625 1.171875 1.5312481q0.75 0.640625 1.78125 1.0q1.046875 0.359375 2.28125 0.359375q0.765625 0 1.421875 -0.140625q0.65625 -0.140625 1.21875 -0.390625q0.53125 -0.25 0.984375 -0.578125q0.453125 -0.3281231 0.796875 -0.7031231q0.078125 0.4374981 0.171875 0.8281231q0.109375 0.390625 0.265625 0.6875zm-3.96875 -2.921873q-0.59375 0 -1.03125 -0.140625q-0.4375 -0.140625 -0.734375 -0.375q-0.296875 -0.265625 -0.46875 -0.625q-0.15625 -0.375 -0.15625 -0.796875q0 -0.5625 0.203125 -1.03125q0.21875 -0.46875 0.65625 -0.8125q0.4375 -0.328125 1.125 -0.515625q0.6875 -0.1875 1.65625 -0.1875l2.125 0l0 2.78125q-0.171875 0.3125 -0.484375 0.625q-0.3125 0.296875 -0.75 0.546875q-0.4375 0.234375 -0.984375 0.390625q-0.53125 0.140625 -1.15625 0.140625zm16.443634 0.515625q0 1.15625 0.78125 1.9374981q0.78125 0.765625 2.109375 0.765625q1.3125 0 2.09375 -0.765625q0.796875 -0.7812481 0.796875 -1.9374981q0 -1.171875 -0.78125 -1.96875q-0.765625 -0.796875 -2.109375 -0.796875q-1.359375 0 -2.125 0.8125q-0.765625 0.796875 -0.765625 1.953125zm21.365479 -0.625q-1.0 0 -1.65625 -0.390625q-0.65625 -0.40625 -1.03125 -1.078125q-0.375 -0.671875 -0.53125 -1.546875q-0.15625 -0.875 -0.15625 -1.8125l0 -0.453125q0 -0.921875 0.15625 -1.78125q0.171875 -0.875 0.546875 -1.546875q0.375 -0.671875 1.015625 -1.078125q0.65625 -0.40625 1.640625 -0.40625q0.671875 0 1.234375 0.234375q0.578125 0.234375 0.984375 0.609375q0.40625 0.390625 0.609375 0.9375q0.203125 0.53125 0.1875 1.140625l3.921875 0q0.015625 -1.4375 -0.5 -2.59375q-0.5 -1.171875 -1.40625 -2.0q-0.921875 -0.796875 -2.203125 -1.25q-1.265625 -0.453125 -2.765625 -0.453125q-1.875 0 -3.296875 0.65625q-1.40625 0.640625 -2.359375 1.75q-0.96875 1.09375 -1.453125 2.59375q-0.46875 1.484375 -0.46875 3.1875l0 0.453125q0 1.703125 0.484375 3.203125q0.484375 1.484375 1.453125 2.59375q0.9375 1.1093731 2.359375 1.7499981q1.421875 0.625 3.3125 0.625q1.390625 0 2.640625 -0.4375q1.25 -0.4375 2.1875 -1.2187481q0.953125 -0.78125 1.484375 -1.859375q0.546875 -1.078125 0.53125 -2.328125l-3.921875 0q0.015625 0.5625 -0.21875 1.03125q-0.21875 0.453125 -0.640625 0.78125q-0.421875 0.328125 -0.984375 0.515625q-0.546875 0.171875 -1.15625 0.171875zm10.6623535 -5.21875l0 0.3125q0 1.78125 0.5 3.296875q0.515625 1.5 1.5 2.609375q0.96875 1.1093731 2.390625 1.7343731q1.4375 0.609375 3.265625 0.609375q1.8125 0 3.234375 -0.609375q1.421875 -0.625 2.390625 -1.7343731q0.984375 -1.109375 1.484375 -2.609375q0.515625 -1.515625 0.515625 -3.296875l0 -0.3125q0 -1.765625 -0.515625 -3.265625q-0.5 -1.5 -1.484375 -2.609375q-0.984375 -1.109375 -2.40625 -1.734375q-1.421875 -0.640625 -3.25 -0.640625q-1.828125 0 -3.25 0.640625q-1.40625 0.625 -2.375 1.734375q-0.984375 1.109375 -1.5 2.609375q-0.5 1.5 -0.5 3.265625zm4.15625 0.3125l0 -0.3125q0 -0.984375 0.1875 -1.859375q0.203125 -0.890625 0.625 -1.5625q0.421875 -0.671875 1.078125 -1.0625q0.65625 -0.390625 1.578125 -0.390625q0.953125 0 1.609375 0.390625q0.65625 0.390625 1.078125 1.0625q0.40625 0.671875 0.59375 1.5625q0.203125 0.875 0.203125 1.859375l0 0.3125q0 1.015625 -0.203125 1.90625q-0.1875 0.890625 -0.59375 1.5625q-0.421875 0.671875 -1.078125 1.0625q-0.65625 0.375 -1.578125 0.375q-0.9375 0 -1.609375 -0.375q-0.65625 -0.390625 -1.078125 -1.0625q-0.421875 -0.671875 -0.625 -1.5625q-0.1875 -0.890625 -0.1875 -1.90625zm17.396759 -8.265625l-3.578125 0l0 16.203123l3.78125 0l0 -12.124998q0.078125 -0.1875 0.171875 -0.359375q0.09375 -0.171875 0.203125 -0.28125q0.171875 -0.171875 0.375 -0.25q0.21875 -0.09375 0.484375 -0.09375q0.234375 0 0.4375 0.0625q0.21875 0.0625 0.375 0.234375q0.15625 0.15625 0.25 0.46875q0.09375 0.296875 0.09375 0.765625l0 11.578123l3.65625 0l0 -11.937498q0 -0.1875 0 -0.28125q0 -0.109375 0 -0.140625q0.078125 -0.171875 0.171875 -0.296875q0.109375 -0.125 0.25 -0.234375q0.171875 -0.109375 0.359375 -0.15625q0.1875 -0.0625 0.421875 -0.0625q0.21875 0 0.4375 0.0625q0.21875 0.0625 0.390625 0.234375q0.15625 0.171875 0.25 0.484375q0.109375 0.296875 0.109375 0.75l0 11.578123l3.78125 0l0 -11.562498q0 -1.34375 -0.265625 -2.28125q-0.265625 -0.9375 -0.71875 -1.53125q-0.484375 -0.578125 -1.125 -0.84375q-0.625 -0.28125 -1.359375 -0.28125q-0.59375 0 -1.09375 0.15625q-0.484375 0.140625 -0.875 0.421875q-0.3125 0.203125 -0.578125 0.5q-0.25 0.28125 -0.46875 0.640625q-0.125 -0.375 -0.3125 -0.65625q-0.1875 -0.296875 -0.453125 -0.5q-0.328125 -0.28125 -0.78125 -0.421875q-0.4375 -0.140625 -1.015625 -0.140625q-1.15625 0 -1.984375 0.609375q-0.8125 0.609375 -1.28125 1.65625l-0.109375 -1.96875z" fill-rule="nonzero"/><path fill="#6b5353" d="m387.40765 30.679419q0 1.15625 0.78125 1.9374981q0.78125 0.765625 2.109375 0.765625q1.3125 0 2.09375 -0.765625q0.796875 -0.7812481 0.796875 -1.9374981q0 -1.171875 -0.78125 -1.96875q-0.765625 -0.796875 -2.109375 -0.796875q-1.359375 0 -2.125 0.8125q-0.765625 0.796875 -0.765625 1.953125zm0 -12.359375q0 1.15625 0.78125 1.9375q0.78125 0.765625 2.109375 0.765625q1.3125 0 2.09375 -0.765625q0.796875 -0.78125 0.796875 -1.9375q0 -1.171875 -0.78125 -1.96875q-0.765625 -0.79687595 -2.109375 -0.79687595q-1.359375 0 -2.125 0.81250095q-0.765625 0.796875 -0.765625 1.953125z" fill-rule="nonzero"/><path fill="#00b26a" d="m413.55438 24.991919l0 -13.703126l-4.21875 0l-9.15625 14.468751l0.15625 2.59375l9.0625 0l0 4.734373l4.15625 0l0 -4.734373l2.53125 0l0 -3.359375l-2.53125 0zm-9.296875 0l4.734375 -7.390625l0.40625 -0.71875l0 8.109375l-5.140625 0zm27.693604 0l0 -13.703126l-4.21875 0l-9.15625 14.468751l0.15625 2.59375l9.0625 0l0 4.734373l4.15625 0l0 -4.734373l2.53125 0l0 -3.359375l-2.53125 0zm-9.296875 0l4.734375 -7.390625l0.40625 -0.71875l0 8.109375l-5.140625 0zm19.724884 -4.625l0 3.234375l2.265625 0q0.859375 0 1.53125 0.203125q0.6875 0.1875 1.171875 0.578125q0.484375 0.40625 0.734375 1.046875q0.265625 0.625 0.265625 1.5q0 0.703125 -0.21875 1.28125q-0.21875 0.5625 -0.640625 0.953125q-0.4375 0.4375 -1.078125 0.671875q-0.640625 0.21875 -1.453125 0.21875q-0.71875 0 -1.328125 -0.21875q-0.59375 -0.21875 -1.015625 -0.609375q-0.453125 -0.375 -0.703125 -0.90625q-0.234375 -0.53125 -0.234375 -1.15625l-4.15625 0q0 1.578125 0.609375 2.75q0.625 1.171875 1.671875 1.921875q1.03125 0.7812481 2.34375 1.1718731q1.328125 0.375 2.71875 0.375q1.625 0 3.015625 -0.421875q1.40625 -0.421875 2.421875 -1.2499981q1.015625 -0.8125 1.59375 -2.0q0.59375 -1.203125 0.59375 -2.734375q0 -0.859375 -0.21875 -1.640625q-0.203125 -0.78125 -0.640625 -1.4375q-0.421875 -0.640625 -1.09375 -1.15625q-0.671875 -0.515625 -1.578125 -0.84375q0.78125 -0.375 1.375 -0.890625q0.59375 -0.515625 1.0 -1.125q0.40625 -0.609375 0.609375 -1.28125q0.21875 -0.6875 0.21875 -1.390625q0 -1.531251 -0.53125 -2.687501q-0.53125 -1.171875 -1.484375 -1.953125q-0.96875 -0.78125 -2.3125 -1.171875q-1.34375 -0.40625 -2.96875 -0.40625q-1.484375 0 -2.78125 0.4375q-1.296875 0.4375 -2.25 1.203125q-0.96875 0.796875 -1.515625 1.890625q-0.546875 1.09375 -0.546875 2.421876l4.171875 0q0 -0.59375 0.234375 -1.062501q0.234375 -0.484375 0.65625 -0.828125q0.40625 -0.328125 0.953125 -0.5q0.546875 -0.1875 1.171875 -0.1875q0.765625 0 1.34375 0.203125q0.578125 0.203125 0.953125 0.578125q0.375 0.390625 0.5625 0.92187595q0.1875 0.53125 0.1875 1.171875q0 0.671875 -0.1875 1.234375q-0.1875 0.546875 -0.5625 0.9375q-0.40625 0.453125 -1.0625 0.703125q-0.65625 0.25 -1.546875 0.25l-2.265625 0z" fill-rule="nonzero"/><path fill="#4a86e8" d="m461.65088 34.960667l8.15625 -23.671875l-3.875 0l-8.15625 23.671875l3.875 0zm27.927979 -9.812498l0 -0.3125q0 -1.46875 -0.265625 -2.75q-0.25 -1.296875 -0.796875 -2.328125q-0.34375 -0.640625 -0.796875 -1.1875q-0.4375 -0.546875 -1.0 -0.9375q-0.6875 -0.5 -1.5625 -0.765625q-0.875 -0.28125 -1.921875 -0.28125q-0.765625 0 -1.421875 0.15625q-0.640625 0.15625 -1.203125 0.484375q-0.390625 0.203125 -0.734375 0.5q-0.34375 0.28125 -0.640625 0.625l0 -8.265626l-4.15625 0l0 23.0l3.734375 0l0.203125 -1.7187481q0.25 0.328125 0.53125 0.609375q0.28125 0.2656231 0.625 0.4999981q0.609375 0.4375 1.375 0.671875q0.78125 0.234375 1.71875 0.234375q1.03125 0 1.890625 -0.265625q0.859375 -0.25 1.546875 -0.75q0.765625 -0.5312481 1.328125 -1.3124981q0.5625 -0.796875 0.90625 -1.765625q0.3125 -0.890625 0.46875 -1.921875q0.171875 -1.046875 0.171875 -2.21875zm-4.15625 -0.3125l0 0.3125q0 0.625 -0.0625 1.21875q-0.046875 0.578125 -0.171875 1.078125q-0.140625 0.671875 -0.4375 1.203125q-0.296875 0.53125 -0.75 0.859375q-0.328125 0.234375 -0.78125 0.375q-0.453125 0.140625 -1.0 0.140625q-0.640625 0 -1.15625 -0.15625q-0.5 -0.15625 -0.875 -0.4375q-0.3125 -0.21875 -0.546875 -0.515625q-0.21875 -0.3125 -0.40625 -0.6875l0 -6.453125q0.140625 -0.28125 0.296875 -0.53125q0.171875 -0.25 0.359375 -0.453125q0.40625 -0.390625 0.96875 -0.59375q0.578125 -0.21875 1.328125 -0.21875q0.546875 0 0.984375 0.125q0.4375 0.125 0.78125 0.375q0.515625 0.40625 0.78125 0.890625q0.265625 0.484375 0.4375 1.109375q0.125 0.515625 0.1875 1.125q0.0625 0.59375 0.0625 1.234375zm8.834259 -14.750001l0 3.40625l4.84375 0l0 16.203125l-4.84375 0l0 3.390623l13.6875 0l0 -3.390623l-4.640625 0l0 -19.609375l-9.046875 0zm16.959259 14.750001l0 0.3125q0 1.78125 0.5 3.296875q0.515625 1.5 1.5 2.609375q0.96875 1.1093731 2.390625 1.7343731q1.4375 0.609375 3.265625 0.609375q1.8125 0 3.234375 -0.609375q1.421875 -0.625 2.390625 -1.7343731q0.984375 -1.109375 1.484375 -2.609375q0.515625 -1.515625 0.515625 -3.296875l0 -0.3125q0 -1.765625 -0.515625 -3.265625q-0.5 -1.5 -1.484375 -2.609375q-0.984375 -1.109375 -2.40625 -1.734375q-1.421875 -0.640625 -3.25 -0.640625q-1.828125 0 -3.25 0.640625q-1.40625 0.625 -2.375 1.734375q-0.984375 1.109375 -1.5 2.609375q-0.5 1.5 -0.5 3.265625zm4.15625 0.3125l0 -0.3125q0 -0.984375 0.1875 -1.859375q0.203125 -0.890625 0.625 -1.5625q0.421875 -0.671875 1.078125 -1.0625q0.65625 -0.390625 1.578125 -0.390625q0.953125 0 1.609375 0.390625q0.65625 0.390625 1.078125 1.0625q0.40625 0.671875 0.59375 1.5625q0.203125 0.875 0.203125 1.859375l0 0.3125q0 1.015625 -0.203125 1.90625q-0.1875 0.890625 -0.59375 1.5625q-0.421875 0.671875 -1.078125 1.0625q-0.65625 0.375 -1.578125 0.375q-0.9375 0 -1.609375 -0.375q-0.65625 -0.390625 -1.078125 -1.0625q-0.421875 -0.671875 -0.625 -1.5625q-0.1875 -0.890625 -0.1875 -1.90625zm14.3811035 -0.28125l0 0.3125q0 1.765625 0.453125 3.28125q0.46875 1.5 1.3125 2.59375q0.859375 1.0937481 2.0625 1.7187481q1.203125 0.609375 2.71875 0.609375q0.765625 0 1.421875 -0.171875q0.671875 -0.15625 1.21875 -0.453125q0.375 -0.203125 0.703125 -0.46875q0.34375 -0.28125 0.640625 -0.6093731l0 0.9218731q0 0.828125 -0.234375 1.484375q-0.234375 0.65625 -0.671875 1.109375q-0.46875 0.5 -1.1875 0.75q-0.703125 0.25 -1.625 0.25q-0.5625 0 -1.09375 -0.109375q-0.53125 -0.109375 -1.03125 -0.328125q-0.5 -0.234375 -0.96875 -0.59375q-0.46875 -0.34375 -0.875 -0.8125l-1.859375 2.53125q0.515625 0.671875 1.25 1.15625q0.734375 0.5 1.5625 0.8125q0.8125 0.3125 1.65625 0.453125q0.84375 0.15625 1.578125 0.15625q1.703125 0 3.109375 -0.453125q1.421875 -0.453125 2.4375 -1.34375q1.0 -0.875 1.5625 -2.171875q0.5625 -1.28125 0.5625 -2.9375l0 -15.671873l-3.78125 0l-0.171875 1.546875q-0.296875 -0.375 -0.65625 -0.671875q-0.359375 -0.3125 -0.78125 -0.53125q-0.546875 -0.328125 -1.234375 -0.484375q-0.671875 -0.15625 -1.5 -0.15625q-1.53125 0 -2.75 0.609375q-1.203125 0.59375 -2.0625 1.6875q-0.84375 1.09375 -1.3125 2.625q-0.453125 1.515625 -0.453125 3.359375zm4.1875 0.3125l0 -0.3125q0 -1.015625 0.203125 -1.90625q0.203125 -0.890625 0.640625 -1.5625q0.421875 -0.65625 1.0625 -1.03125q0.640625 -0.390625 1.53125 -0.390625q0.484375 0 0.890625 0.09375q0.40625 0.078125 0.75 0.25q0.40625 0.1875 0.71875 0.515625q0.3125 0.3125 0.546875 0.71875l0 6.859375q-0.21875 0.375 -0.5 0.671875q-0.28125 0.296875 -0.65625 0.515625q-0.359375 0.1875 -0.8125 0.296875q-0.4375 0.109375 -0.96875 0.109375q-0.890625 0 -1.53125 -0.375q-0.640625 -0.375 -1.0625 -1.03125q-0.421875 -0.65625 -0.625 -1.53125q-0.1875 -0.875 -0.1875 -1.890625zm19.693604 9.781248l8.15625 -23.671875l-3.875 0l-8.15625 23.671875l3.875 0zm13.3967285 4.359375l4.15625 0l0 -7.640623q0.28125 0.3125 0.59375 0.5781231q0.328125 0.25 0.671875 0.453125q0.578125 0.328125 1.25 0.5q0.6875 0.171875 1.5 0.171875q1.53125 0 2.703125 -0.625q1.1875 -0.625 2.0 -1.7343731q0.796875 -1.09375 1.203125 -2.609375q0.40625 -1.515625 0.40625 -3.28125l0 -0.3125q0 -1.84375 -0.40625 -3.359375q-0.40625 -1.515625 -1.21875 -2.609375q-0.8125 -1.078125 -2.0 -1.671875q-1.171875 -0.59375 -2.71875 -0.59375q-0.75 0 -1.40625 0.15625q-0.640625 0.15625 -1.1875 0.453125q-0.4375 0.234375 -0.828125 0.5625q-0.390625 0.3125 -0.71875 0.71875l-0.15625 -1.59375l-3.84375 0l0 22.437498zm10.328125 -14.499998l0 0.3125q0 1.0 -0.1875 1.890625q-0.171875 0.890625 -0.5625 1.578125q-0.390625 0.671875 -1.015625 1.0625q-0.609375 0.390625 -1.5 0.390625q-0.546875 0 -1.0 -0.109375q-0.453125 -0.125 -0.796875 -0.328125q-0.359375 -0.234375 -0.640625 -0.546875q-0.265625 -0.3125 -0.46875 -0.703125l0 -6.765625q0.21875 -0.421875 0.5 -0.734375q0.296875 -0.3125 0.6875 -0.515625q0.34375 -0.1875 0.765625 -0.28125q0.421875 -0.09375 0.921875 -0.09375q0.890625 0 1.5 0.375q0.625 0.375 1.03125 1.015625q0.390625 0.65625 0.578125 1.546875q0.1875 0.890625 0.1875 1.90625zm18.131165 8.265623l4.21875 0l0 -0.25q-0.3125 -0.625 -0.484375 -1.4687481q-0.15625 -0.859375 -0.15625 -2.15625l0 -6.953125q0 -1.40625 -0.53125 -2.46875q-0.515625 -1.078125 -1.453125 -1.78125q-0.921875 -0.703125 -2.1875 -1.0625q-1.265625 -0.359375 -2.734375 -0.359375q-1.625 0 -2.890625 0.421875q-1.265625 0.40625 -2.140625 1.109375q-0.875 0.703125 -1.34375 1.640625q-0.453125 0.921875 -0.453125 1.953125l4.15625 0q0 -0.4375 0.125 -0.796875q0.140625 -0.359375 0.40625 -0.609375q0.296875 -0.28125 0.765625 -0.4375q0.484375 -0.15625 1.15625 -0.15625q0.75 0 1.296875 0.1875q0.5625 0.171875 0.9375 0.53125q0.359375 0.328125 0.53125 0.78125q0.1875 0.453125 0.1875 1.015625l0 0.96875l-2.3125 0q-1.796875 0 -3.1875 0.328125q-1.375 0.3125 -2.328125 0.921875q-1.046875 0.671875 -1.578125 1.71875q-0.515625 1.046875 -0.515625 2.390625q0 1.046875 0.421875 1.9375q0.421875 0.890625 1.171875 1.5312481q0.75 0.640625 1.78125 1.0q1.046875 0.359375 2.28125 0.359375q0.765625 0 1.421875 -0.140625q0.65625 -0.140625 1.21875 -0.390625q0.53125 -0.25 0.984375 -0.578125q0.453125 -0.3281231 0.796875 -0.7031231q0.078125 0.4374981 0.171875 0.8281231q0.109375 0.390625 0.265625 0.6875zm-3.96875 -2.921873q-0.59375 0 -1.03125 -0.140625q-0.4375 -0.140625 -0.734375 -0.375q-0.296875 -0.265625 -0.46875 -0.625q-0.15625 -0.375 -0.15625 -0.796875q0 -0.5625 0.203125 -1.03125q0.21875 -0.46875 0.65625 -0.8125q0.4375 -0.328125 1.125 -0.515625q0.6875 -0.1875 1.65625 -0.1875l2.125 0l0 2.78125q-0.171875 0.3125 -0.484375 0.625q-0.3125 0.296875 -0.75 0.546875q-0.4375 0.234375 -0.984375 0.390625q-0.53125 0.140625 -1.15625 0.140625zm11.8186035 -5.296875l0 0.3125q0 1.765625 0.453125 3.28125q0.46875 1.5 1.3125 2.59375q0.859375 1.0937481 2.0625 1.7187481q1.203125 0.609375 2.71875 0.609375q0.765625 0 1.421875 -0.171875q0.671875 -0.15625 1.21875 -0.453125q0.375 -0.203125 0.703125 -0.46875q0.34375 -0.28125 0.640625 -0.6093731l0 0.9218731q0 0.828125 -0.234375 1.484375q-0.234375 0.65625 -0.671875 1.109375q-0.46875 0.5 -1.1875 0.75q-0.703125 0.25 -1.625 0.25q-0.5625 0 -1.09375 -0.109375q-0.53125 -0.109375 -1.03125 -0.328125q-0.5 -0.234375 -0.96875 -0.59375q-0.46875 -0.34375 -0.875 -0.8125l-1.859375 2.53125q0.515625 0.671875 1.25 1.15625q0.734375 0.5 1.5625 0.8125q0.8125 0.3125 1.65625 0.453125q0.84375 0.15625 1.578125 0.15625q1.703125 0 3.109375 -0.453125q1.421875 -0.453125 2.4375 -1.34375q1.0 -0.875 1.5625 -2.171875q0.5625 -1.28125 0.5625 -2.9375l0 -15.671873l-3.78125 0l-0.171875 1.546875q-0.296875 -0.375 -0.65625 -0.671875q-0.359375 -0.3125 -0.78125 -0.53125q-0.546875 -0.328125 -1.234375 -0.484375q-0.671875 -0.15625 -1.5 -0.15625q-1.53125 0 -2.75 0.609375q-1.203125 0.59375 -2.0625 1.6875q-0.84375 1.09375 -1.3125 2.625q-0.453125 1.515625 -0.453125 3.359375zm4.1875 0.3125l0 -0.3125q0 -1.015625 0.203125 -1.90625q0.203125 -0.890625 0.640625 -1.5625q0.421875 -0.65625 1.0625 -1.03125q0.640625 -0.390625 1.53125 -0.390625q0.484375 0 0.890625 0.09375q0.40625 0.078125 0.75 0.25q0.40625 0.1875 0.71875 0.515625q0.3125 0.3125 0.546875 0.71875l0 6.859375q-0.21875 0.375 -0.5 0.671875q-0.28125 0.296875 -0.65625 0.515625q-0.359375 0.1875 -0.8125 0.296875q-0.4375 0.109375 -0.96875 0.109375q-0.890625 0 -1.53125 -0.375q-0.640625 -0.375 -1.0625 -1.03125q-0.421875 -0.65625 -0.625 -1.53125q-0.1875 -0.875 -0.1875 -1.890625zm22.490479 8.203123q2.34375 0 4.0625 -0.90625q1.734375 -0.9218731 2.53125 -2.046873l-2.09375 -2.234375q-0.71875 0.921875 -1.875 1.390625q-1.140625 0.46875 -2.375 0.46875q-0.859375 0 -1.59375 -0.265625q-0.734375 -0.28125 -1.3125 -0.78125q-0.546875 -0.46875 -0.875 -1.0625q-0.328125 -0.59375 -0.546875 -1.5625l0 -0.046875l11.0 0l0 -1.765625q0 -1.78125 -0.5 -3.25q-0.5 -1.484375 -1.4375 -2.53125q-0.953125 -1.046875 -2.328125 -1.625q-1.375 -0.578125 -3.125 -0.578125q-1.6875 0 -3.125 0.625q-1.4375 0.609375 -2.484375 1.71875q-1.046875 1.109375 -1.640625 2.640625q-0.578125 1.53125 -0.578125 3.390625l0 0.59375q0 1.640625 0.59375 3.078125q0.59375 1.421875 1.6875 2.46875q1.09375 1.0624981 2.609375 1.6718731q1.53125 0.609375 3.40625 0.609375zm-0.5 -13.421873q0.796875 0 1.40625 0.25q0.609375 0.234375 1.03125 0.65625q0.40625 0.4375 0.640625 1.03125q0.25 0.578125 0.25 1.234375l0 0.328125l-6.828125 0q0.15625 -0.796875 0.453125 -1.4375q0.296875 -0.640625 0.75 -1.109375q0.4375 -0.46875 1.015625 -0.703125q0.578125 -0.25 1.28125 -0.25z" fill-rule="nonzero"/></g></svg>