<svg width="803" height="770" viewBox="0 0 803 770" fill="none" xmlns="http://www.w3.org/2000/svg">
<g clip-path="url(#clip0_61_149)">
<path fill-rule="evenodd" clip-rule="evenodd" d="M0 0H802.136V769.375H0V0Z" fill="white"/>
<path d="M55.1129 13.8924H419.635V55.4882H55.1129V13.8924V13.8924Z" fill="#6B5353"/>
<path d="M419.635 13.8924H790.832V55.4882H419.635V13.8924V13.8924Z" fill="#6B5353"/>
<path d="M14.9186 55.4882H55.1129V443.761H14.9186V55.4882V55.4882Z" fill="#6B5353"/>
<path d="M55.1129 55.4882H419.635V443.761H55.1129V55.4882V55.4882Z" fill="#CAAE9D" fill-opacity="0.4115"/>
<path d="M14.9186 443.761H55.1129V761.294H14.9186V443.761V443.761Z" fill="#6B5353"/>
<path d="M55.1129 443.761H419.635V761.294H55.1129V443.761V443.761Z" fill="#CAAE9D" fill-opacity="0.4115"/>
<path d="M14.9186 12.8924V54.4882" stroke="white" stroke-width="2" stroke-miterlimit="10"/>
<path d="M14.9186 54.4882V762.294" stroke="#6B5353" stroke-width="2" stroke-miterlimit="10"/>
<path d="M55.1129 12.8924V762.294" stroke="#6B5353" stroke-width="2" stroke-miterlimit="10"/>
<path d="M419.635 12.8924V54.4882" stroke="white" stroke-width="2" stroke-miterlimit="10"/>
<path d="M419.635 442.761V762.294" stroke="white" stroke-width="2" stroke-miterlimit="10"/>
<path d="M790.832 12.8924V762.294" stroke="#6B5353" stroke-width="2" stroke-miterlimit="10"/>
<path d="M13.9186 13.8924H54.1129" stroke="white" stroke-width="2" stroke-miterlimit="10"/>
<path d="M54.1129 13.8924H791.832" stroke="#6B5353" stroke-width="2" stroke-miterlimit="10"/>
<path d="M13.9186 55.4882H791.832" stroke="#6B5353" stroke-width="2" stroke-miterlimit="10"/>
<path d="M13.9186 443.761H54.1129" stroke="white" stroke-width="2" stroke-miterlimit="10"/>
<path d="M54.1129 443.761H791.832" stroke="#6B5353" stroke-width="2" stroke-miterlimit="10"/>
<path d="M13.9186 761.294H791.832" stroke="#6B5353" stroke-width="2" stroke-miterlimit="10"/>
<path d="M220.934 43.8103H217.216V36.0916H209.981V43.8103H206.278V25.8103H209.981V33.1072H217.216V25.8103H220.934V43.8103ZM237.362 28.8103H231.846V43.8103H228.143V28.8103H222.706V25.8103H237.362V28.8103ZM253.229 28.8103H247.713V43.8103H244.01V28.8103H238.573V25.8103H253.229V28.8103ZM259.055 37.4666V43.8103H255.351V25.8103H262.367C263.721 25.8103 264.909 26.0603 265.93 26.5603C266.961 27.0499 267.752 27.7478 268.305 28.6541C268.857 29.5603 269.133 30.5968 269.133 31.7634C269.133 33.5238 268.529 34.9145 267.32 35.9353C266.122 36.9561 264.456 37.4666 262.32 37.4666H259.055ZM259.055 34.4666H262.367C263.357 34.4666 264.107 34.2374 264.617 33.7791C265.138 33.3103 265.398 32.6488 265.398 31.7947C265.398 30.9093 265.138 30.1957 264.617 29.6541C264.096 29.102 263.377 28.8207 262.461 28.8103H259.055V34.4666V34.4666Z" fill="white"/>
<path d="M556.685 38.6228L559.122 25.8103H562.81L558.826 43.8103H555.091L552.154 31.7634L549.216 43.8103H545.482L541.497 25.8103H545.185L547.622 38.5916L550.591 25.8103H553.732L556.685 38.6228ZM570.358 44.0603C568.399 44.0603 566.8 43.4613 565.561 42.2634C564.332 41.0551 563.717 39.4457 563.717 37.4353V37.0916C563.717 35.7478 563.977 34.5499 564.498 33.4978C565.019 32.4353 565.753 31.6176 566.701 31.0447C567.66 30.4718 568.748 30.1853 569.967 30.1853C571.79 30.1853 573.227 30.7634 574.279 31.9197C575.332 33.0655 575.858 34.7009 575.858 36.8259V38.2791H567.342C567.457 39.1541 567.805 39.8572 568.389 40.3884C568.972 40.9093 569.707 41.1697 570.592 41.1697C571.967 41.1697 573.045 40.6749 573.826 39.6853L575.576 41.6384C575.045 42.3988 574.321 42.9926 573.404 43.4197C572.488 43.8468 571.472 44.0603 570.358 44.0603ZM569.951 33.0759C569.243 33.0759 568.665 33.3155 568.217 33.7947C567.779 34.2738 567.498 34.9561 567.373 35.8416H572.342V35.5603C572.332 34.7686 572.118 34.1593 571.701 33.7322C571.295 33.2947 570.712 33.0759 569.951 33.0759ZM589.954 37.2478C589.954 39.3936 589.496 41.0655 588.579 42.2634C587.663 43.4613 586.381 44.0603 584.736 44.0603C583.288 44.0603 582.131 43.503 581.267 42.3884L581.111 43.8103H577.892V24.8103H581.47V31.6228C582.293 30.6645 583.376 30.1853 584.72 30.1853C586.345 30.1853 587.621 30.7843 588.548 31.9822C589.486 33.1801 589.954 34.8676 589.954 37.0447V37.2478ZM586.376 36.9822C586.376 35.628 586.163 34.6436 585.736 34.0291C585.309 33.4041 584.668 33.0916 583.814 33.0916C582.678 33.0916 581.897 33.5551 581.47 34.4822V39.7634C581.907 40.7009 582.699 41.1697 583.845 41.1697C584.991 41.1697 585.746 40.602 586.111 39.4666C586.288 38.9249 586.376 38.0968 586.376 36.9822ZM601.714 39.0916C601.714 38.3832 601.469 37.8416 600.979 37.4666C600.49 37.0916 599.599 36.6957 598.307 36.2791C597.026 35.8624 596.011 35.4561 595.261 35.0603C593.209 33.9561 592.182 32.4666 592.182 30.5916C592.182 29.6124 592.459 28.7426 593.011 27.9822C593.563 27.2218 594.349 26.628 595.37 26.2009C596.401 25.7738 597.552 25.5603 598.823 25.5603C600.115 25.5603 601.261 25.7947 602.261 26.2634C603.271 26.7218 604.052 27.378 604.604 28.2322C605.167 29.0759 605.448 30.0395 605.448 31.1228H601.729C601.729 30.2999 601.469 29.6593 600.948 29.2009C600.438 28.7426 599.709 28.5134 598.761 28.5134C597.854 28.5134 597.151 28.7061 596.651 29.0916C596.151 29.477 595.901 29.9822 595.901 30.6072C595.901 31.1905 596.193 31.6801 596.776 32.0759C597.37 32.4718 598.24 32.8416 599.386 33.1853C601.5 33.8207 603.037 34.6124 603.995 35.5603C604.964 36.4978 605.448 37.6645 605.448 39.0603C605.448 40.6228 604.854 41.8468 603.667 42.7322C602.49 43.6176 600.906 44.0603 598.917 44.0603C597.531 44.0603 596.266 43.8051 595.12 43.2947C593.985 42.7843 593.12 42.0916 592.526 41.2166C591.932 40.3311 591.636 39.3051 591.636 38.1384H595.354C595.354 40.128 596.542 41.1228 598.917 41.1228C599.802 41.1228 600.49 40.9457 600.979 40.5916C601.469 40.227 601.714 39.727 601.714 39.0916V39.0916ZM607.159 36.9978C607.159 35.6645 607.414 34.4822 607.925 33.4509C608.435 32.4093 609.17 31.6072 610.128 31.0447C611.097 30.4718 612.216 30.1853 613.487 30.1853C615.289 30.1853 616.758 30.7374 617.893 31.8416C619.039 32.9457 619.68 34.4457 619.815 36.3416L619.847 37.2634C619.847 39.3155 619.268 40.9613 618.112 42.2009C616.966 43.4405 615.43 44.0603 613.503 44.0603C611.576 44.0603 610.034 43.4405 608.878 42.2009C607.732 40.9613 607.159 39.2791 607.159 37.1541V36.9978ZM610.737 37.2634C610.737 38.5238 610.977 39.4926 611.456 40.1697C611.935 40.8363 612.617 41.1697 613.503 41.1697C614.367 41.1697 615.045 40.8416 615.534 40.1853C616.024 39.5186 616.268 38.4561 616.268 36.9978C616.268 35.7478 616.024 34.7843 615.534 34.1072C615.045 33.4197 614.362 33.0759 613.487 33.0759C612.612 33.0759 611.935 33.4197 611.456 34.1072C610.977 34.7843 610.737 35.8363 610.737 37.2634ZM627.605 41.1697C628.262 41.1697 628.798 40.9926 629.215 40.6384C629.631 40.2738 629.845 39.7895 629.855 39.1853H633.215C633.204 40.0916 632.954 40.9249 632.465 41.6853C631.975 42.4353 631.309 43.0186 630.465 43.4353C629.621 43.852 628.689 44.0603 627.668 44.0603C625.751 44.0603 624.241 43.4509 623.137 42.2322C622.032 41.0134 621.48 39.3363 621.48 37.2009V36.9666C621.48 34.9041 622.027 33.2582 623.121 32.0291C624.225 30.7999 625.73 30.1853 627.637 30.1853C629.314 30.1853 630.657 30.6645 631.668 31.6228C632.678 32.5707 633.194 33.8363 633.215 35.4197H629.855C629.845 34.7218 629.631 34.1593 629.215 33.7322C628.798 33.2947 628.251 33.0759 627.574 33.0759C626.751 33.0759 626.126 33.378 625.699 33.9822C625.272 34.5863 625.059 35.5707 625.059 36.9353V37.3103C625.059 38.6853 625.267 39.6749 625.684 40.2791C626.111 40.8728 626.751 41.1697 627.605 41.1697V41.1697ZM640.111 38.4353L638.829 39.7322V43.8103H635.251V24.8103H638.829V35.3416L639.517 34.4509L642.939 30.4353H647.236L642.392 36.0134L647.657 43.8103H643.548L640.111 38.4353ZM654.69 44.0603C652.731 44.0603 651.132 43.4613 649.893 42.2634C648.664 41.0551 648.049 39.4457 648.049 37.4353V37.0916C648.049 35.7478 648.31 34.5499 648.83 33.4978C649.351 32.4353 650.086 31.6176 651.034 31.0447C651.992 30.4718 653.08 30.1853 654.299 30.1853C656.122 30.1853 657.56 30.7634 658.612 31.9197C659.664 33.0655 660.19 34.7009 660.19 36.8259V38.2791H651.674C651.789 39.1541 652.138 39.8572 652.721 40.3884C653.304 40.9093 654.039 41.1697 654.924 41.1697C656.299 41.1697 657.377 40.6749 658.159 39.6853L659.909 41.6384C659.377 42.3988 658.653 42.9926 657.737 43.4197C656.82 43.8468 655.804 44.0603 654.69 44.0603ZM654.284 33.0759C653.575 33.0759 652.997 33.3155 652.549 33.7947C652.112 34.2738 651.83 34.9561 651.705 35.8416H656.674V35.5603C656.664 34.7686 656.45 34.1593 656.034 33.7322C655.627 33.2947 655.044 33.0759 654.284 33.0759ZM666.505 27.1384V30.4353H668.787V33.0447H666.505V39.7322C666.505 40.2218 666.599 40.5759 666.787 40.7947C666.974 41.003 667.339 41.1072 667.88 41.1072C668.276 41.1072 668.625 41.0811 668.927 41.0291V43.7322C668.229 43.9509 667.505 44.0603 666.755 44.0603C664.255 44.0603 662.979 42.7947 662.927 40.2634V33.0447H660.974V30.4353H662.927V27.1384H666.505V27.1384Z" fill="white"/>
<path d="M34.2423 199.726C32.0652 199.726 30.2006 199.007 28.6486 197.57C28.0444 198.278 26.7111 199.205 24.6486 200.351L23.4923 196.773C24.5131 196.502 25.685 195.934 27.0079 195.07V189.429H23.9298V186.523H30.0079V195.023C31.1225 196.023 32.6694 196.523 34.6486 196.523H47.5392L46.9298 199.726H34.2423ZM35.4767 179.46C37.3309 179.908 38.4142 180.195 38.7267 180.32L39.1017 180.038H31.0548V177.132H42.7111L43.3829 176.742L45.1486 178.023C46.1902 178.898 45.9767 179.398 44.5079 179.523L41.5236 181.523L42.6486 182.038L41.8204 182.867H45.5392V194.663C45.5392 195.924 44.909 196.554 43.6486 196.554H40.9767L40.8204 193.648H42.6486C42.659 193.731 42.6225 193.773 42.5392 193.773V192.398H39.8048V196.257H36.7892V192.398H34.2736V196.663H31.2579V182.867H36.4611C35.3465 182.419 34.2371 182.064 33.1329 181.804L35.4767 179.46ZM39.8048 185.476V186.32H42.5392V185.476H39.8048ZM34.2736 185.476V186.32H36.7892V185.476H34.2736ZM36.7892 188.945H34.2736V189.788H36.7892V188.945ZM42.5392 188.945H39.8048V189.788H42.5392V188.945ZM26.8204 176.773C28.9246 178.096 30.3934 179.429 31.2267 180.773L28.8673 183.273C27.5965 181.679 26.2423 180.325 24.8048 179.21L26.8204 176.773Z" fill="white"/>
<path d="M23.1798 218.532C25.8048 215.418 27.3621 211.537 27.8517 206.892L30.8517 207.673C31.5913 208.412 31.5548 208.902 30.7423 209.142C30.4402 210.871 30.0965 212.298 29.7111 213.423C30.9506 213.548 30.9506 214.027 29.7111 214.86V230.517H26.7111L26.8517 219.095C26.9246 219.168 26.4194 219.839 25.3361 221.11L23.1798 218.532ZM42.5392 224.579H34.7579V226.423H42.5392V224.579ZM31.7579 221.673H45.5392V230.22H42.5392V229.329H34.7579V230.517H31.7579V221.673ZM32.3517 221.017V218.11H44.5548V221.017H32.3517ZM32.3517 217.563V214.642H44.5548V217.563H32.3517ZM30.0704 211.282H47.0236V214.204H30.0704V211.282V211.282ZM32.3517 207.72H44.5548V210.642H32.3517V207.72Z" fill="white"/>
<path d="M27.5908 256.338C36.1116 254.349 40.5543 250.239 40.9189 244.01H26.1064V240.792H41.6064L43.2001 240.448L44.6533 241.792C44.3824 250.969 39.5335 256.838 30.1064 259.401L27.5908 256.338V256.338Z" fill="white"/>
<path d="M43.7081 287.457H40.4112V286.379H30.4581V287.957H27.1456V271.488H43.7081V287.457ZM30.4581 274.707V283.16H40.4112V274.707H30.4581Z" fill="white"/>
<path d="M34.2423 557.429C32.0652 557.429 30.2006 556.71 28.6486 555.273C28.0444 555.981 26.7111 556.908 24.6486 558.054L23.4923 554.476C24.5131 554.205 25.685 553.637 27.0079 552.773V547.132H23.9298V544.226H30.0079V552.726C31.1225 553.726 32.6694 554.226 34.6486 554.226H47.5392L46.9298 557.429H34.2423ZM35.4767 537.163C37.3309 537.611 38.4142 537.898 38.7267 538.023L39.1017 537.741H31.0548V534.835H42.7111L43.3829 534.444L45.1486 535.726C46.1902 536.601 45.9767 537.101 44.5079 537.226L41.5236 539.226L42.6486 539.741L41.8204 540.569H45.5392V552.366C45.5392 553.627 44.909 554.257 43.6486 554.257H40.9767L40.8204 551.351H42.6486C42.659 551.434 42.6225 551.476 42.5392 551.476V550.101H39.8048V553.96H36.7892V550.101H34.2736V554.366H31.2579V540.569H36.4611C35.3465 540.122 34.2371 539.767 33.1329 539.507L35.4767 537.163ZM39.8048 543.179V544.023H42.5392V543.179H39.8048ZM34.2736 543.179V544.023H36.7892V543.179H34.2736ZM36.7892 546.648H34.2736V547.491H36.7892V546.648ZM42.5392 546.648H39.8048V547.491H42.5392V546.648ZM26.8204 534.476C28.9246 535.799 30.3934 537.132 31.2267 538.476L28.8673 540.976C27.5965 539.382 26.2423 538.028 24.8048 536.913L26.8204 534.476Z" fill="white"/>
<path d="M23.1798 576.235C25.8048 573.12 27.3621 569.24 27.8517 564.594L30.8517 565.376C31.5913 566.115 31.5548 566.605 30.7423 566.844C30.4402 568.574 30.0965 570.001 29.7111 571.126C30.9506 571.251 30.9506 571.73 29.7111 572.563V588.219H26.7111L26.8517 576.798C26.9246 576.87 26.4194 577.542 25.3361 578.813L23.1798 576.235ZM42.5392 582.282H34.7579V584.126H42.5392V582.282ZM31.7579 579.376H45.5392V587.923H42.5392V587.032H34.7579V588.219H31.7579V579.376ZM32.3517 578.719V575.813H44.5548V578.719H32.3517ZM32.3517 575.266V572.344H44.5548V575.266H32.3517ZM30.0704 568.985H47.0236V571.907H30.0704V568.985V568.985ZM32.3517 565.423H44.5548V568.344H32.3517V565.423Z" fill="white"/>
<path d="M34.2214 606.557H24.3307V603.338H45.6432V606.557H37.5339V607.323C37.5339 611.635 35.888 615.291 32.5964 618.291L29.737 616.151C32.7266 613.797 34.2214 610.854 34.2214 607.323V606.557ZM27.8932 600.526V597.307H41.0964V600.526H27.8932ZM41.9401 595.291C43.013 596.364 44.1432 597.781 45.3307 599.541L43.1276 601.119C42.013 599.526 40.8672 598.062 39.6901 596.729L41.9401 595.291ZM44.2995 593.979C45.3724 595.135 46.5183 596.52 47.737 598.135L45.5182 599.729C44.2682 598.031 43.112 596.651 42.0495 595.588L44.2995 593.979Z" fill="white"/>
<path d="M19.4767 633.714V631.574H34.9767V633.714H19.4767V633.714ZM35.8126 633.714V631.574H51.3126V633.714H35.8126Z" fill="#6B5353"/>
<path d="M33.9448 657.132C33.7157 657.788 33.5334 658.241 33.3979 658.491H39.0698L40.3979 658.023L41.9292 659.554C42.5125 660.273 42.4032 660.783 41.6011 661.085C41.1011 663.575 40.3771 665.788 39.4292 667.726L41.8667 669.351L39.7886 672.398L37.6167 670.819C35.8459 673.372 33.049 675.606 29.2261 677.523L25.9761 675.101C30.3927 673.267 33.3354 671.184 34.8042 668.851C33.45 667.986 31.8198 667.043 29.9136 666.023L31.6636 663.398C33.9865 664.45 35.6584 665.278 36.6792 665.882C37.4813 664.236 37.9552 662.84 38.1011 661.694H31.7573C30.5802 663.799 28.95 665.898 26.8667 667.991L24.1323 666.101C27.7157 662.382 30.075 658.429 31.2104 654.241L34.1479 655.476C35.4396 656.111 35.3719 656.663 33.9448 657.132Z" fill="white"/>
<path d="M323.305 192.905L131.404 161.801" stroke="#6B5353" stroke-width="3" stroke-miterlimit="10" stroke-linejoin="round"/>
<path fill-rule="evenodd" clip-rule="evenodd" d="M322.513 197.796L336.744 195.083L324.098 188.013L322.513 197.796Z" fill="#6B5353" stroke="#6B5353" stroke-width="3" stroke-miterlimit="10"/>
<path fill-rule="evenodd" clip-rule="evenodd" d="M324.967 64.912C324.967 63.9498 325.747 63.1697 326.709 63.1697H359.726C360.189 63.1697 360.632 63.3533 360.958 63.68C361.285 64.0068 361.469 64.4499 361.469 64.912V113.905C361.469 114.867 360.689 115.647 359.726 115.647H326.709C325.747 115.647 324.967 114.867 324.967 113.905V64.912Z" fill="#6B5353"/>
<path fill-rule="evenodd" clip-rule="evenodd" d="M330.993 71.1251C330.993 70.9817 331.109 70.8655 331.253 70.8655H355.439C355.508 70.8655 355.574 70.8929 355.623 70.9416C355.672 70.9902 355.699 71.0563 355.699 71.1251V76.0438C355.699 76.1871 355.583 76.3033 355.439 76.3033H331.253C331.109 76.3033 330.993 76.1871 330.993 76.0438V71.1251Z" fill="white"/>
<path fill-rule="evenodd" clip-rule="evenodd" d="M330.865 79.7375C330.865 79.5942 330.981 79.478 331.124 79.478H355.311C355.38 79.478 355.446 79.5053 355.495 79.554C355.543 79.6027 355.571 79.6687 355.571 79.7375V84.6562C355.571 84.7996 355.455 84.9158 355.311 84.9158H331.124C330.981 84.9158 330.865 84.7996 330.865 84.6562V79.7375Z" fill="white"/>
<path fill-rule="evenodd" clip-rule="evenodd" d="M339.849 106.64C339.849 105.138 341.274 103.921 343.032 103.921C344.79 103.921 346.215 105.138 346.215 106.64C346.215 108.141 344.79 109.359 343.032 109.359C341.274 109.359 339.849 108.141 339.849 106.64V106.64Z" fill="white"/>
<path fill-rule="evenodd" clip-rule="evenodd" d="M97.9966 72.2886C97.9966 71.6206 98.5382 71.079 99.2062 71.079H142.55C142.871 71.079 143.179 71.2065 143.405 71.4333C143.632 71.6602 143.76 71.9678 143.76 72.2886V98.5393C143.76 99.2074 143.218 99.7489 142.55 99.7489H99.2062C98.5382 99.7489 97.9966 99.2074 97.9966 98.5393V72.2886Z" fill="#6B5353"/>
<path fill-rule="evenodd" clip-rule="evenodd" d="M91.0731 111.908L98.4691 101.701H143.675L151.071 111.908H91.0731Z" fill="#6B5353"/>
<path fill-rule="evenodd" clip-rule="evenodd" d="M91.0731 111.908L98.4691 101.701H143.675L151.071 111.908H91.0731Z" stroke="#6B5353" stroke-miterlimit="10" stroke-linejoin="round"/>
<path fill-rule="evenodd" clip-rule="evenodd" d="M111.343 110.58L114.288 107.028H127.857L130.802 110.58H111.343Z" fill="white"/>
<path fill-rule="evenodd" clip-rule="evenodd" d="M111.343 110.58L114.288 107.028H127.857L130.802 110.58H111.343Z" stroke="#6B5353" stroke-miterlimit="10" stroke-linejoin="round"/>
<path fill-rule="evenodd" clip-rule="evenodd" d="M101.149 74.0123C101.149 74.0121 101.149 74.012 101.149 74.012L140.597 74.0123C140.597 74.0123 140.597 74.0123 140.597 74.0124C140.598 74.0125 140.598 74.0125 140.598 74.0126L140.597 96.8142C140.597 96.8144 140.597 96.8146 140.597 96.8146L101.149 96.8142C101.149 96.8142 101.149 96.8141 101.149 96.8139L101.149 74.0123Z" fill="white"/>
<path d="M135.181 489.073H336.753V591.328H135.181V489.073V489.073Z" fill="#FF668A"/>
<path d="M135.181 591.328H336.753V727.782H135.181V591.328Z" fill="#6B5353"/>
<path d="M135.181 487.575V729.281" stroke="white" stroke-width="3" stroke-miterlimit="10"/>
<path d="M336.753 487.575V729.281" stroke="white" stroke-width="3" stroke-miterlimit="10"/>
<path d="M133.682 489.073H338.252" stroke="white" stroke-width="3" stroke-miterlimit="10"/>
<path d="M133.682 591.328H338.252" stroke="white" stroke-width="3" stroke-miterlimit="10"/>
<path d="M133.682 727.782H338.252" stroke="white" stroke-width="3" stroke-miterlimit="10"/>
<path d="M215.745 534.74C216.172 534.334 216.661 534.131 217.213 534.131C217.755 534.131 218.229 534.303 218.635 534.646C221.156 536.886 224.484 539.777 228.62 543.318L226.151 545.568C223.109 542.766 220.333 540.219 217.823 537.928C217.406 537.563 217.177 537.381 217.135 537.381C216.989 537.381 216.771 537.547 216.479 537.881C214.885 539.745 213.239 541.594 211.541 543.428L209.401 540.928C211.724 538.667 213.838 536.605 215.745 534.74ZM243.455 537.693C243.08 541.214 242.065 543.803 240.409 545.459C238.773 547.084 236.534 548.417 233.69 549.459L232.112 547.131C234.924 546.204 237.018 545.053 238.393 543.678C239.851 542.23 240.695 539.542 240.924 535.615L243.19 536.35C244.304 536.735 244.393 537.183 243.455 537.693ZM235.862 540.975C235.091 539.256 234.294 537.777 233.471 536.537L235.799 535.318C236.778 536.579 237.633 538.068 238.362 539.787L235.862 540.975ZM231.674 542.225C230.903 540.433 230.08 538.886 229.205 537.584L231.627 536.381C232.554 537.652 233.372 539.157 234.08 540.896L231.674 542.225ZM259.377 534.506C259.857 535.12 259.763 535.547 259.096 535.787C258.69 537.85 258.096 539.688 257.315 541.303L259.33 542.646L257.596 545.193L255.799 543.881C254.33 545.995 252.008 547.85 248.83 549.443L246.112 547.412C249.778 545.891 252.221 544.172 253.44 542.256C252.325 541.537 250.976 540.745 249.393 539.881L250.846 537.709C252.784 538.574 254.169 539.256 255.002 539.756C255.669 538.402 256.06 537.256 256.174 536.318H250.924C249.966 538.058 248.617 539.792 246.877 541.521L244.596 539.959C247.575 536.876 249.534 533.594 250.471 530.115L252.924 531.131C253.997 531.662 253.94 532.126 252.752 532.521C252.575 533.063 252.429 533.433 252.315 533.631H257.002L258.096 533.24L259.377 534.506ZM258.471 530.49C259.596 531.344 260.768 532.449 261.987 533.803L260.237 535.162C259.08 533.933 257.903 532.824 256.705 531.834L258.471 530.49ZM260.346 529.256C261.429 530.006 262.539 531.053 263.674 532.396L261.955 533.865C260.799 532.574 259.679 531.495 258.596 530.631L260.346 529.256Z" fill="white"/>
<path d="M196.186 659.032H187.983V656.344H205.67V659.032H198.952V659.657C198.952 663.23 197.582 666.261 194.842 668.751L192.452 666.985C194.941 665.016 196.186 662.574 196.186 659.657V659.032ZM190.936 654.032V651.344H201.905V654.032H190.936ZM202.592 649.657C203.488 650.563 204.436 651.746 205.436 653.204L203.561 654.532C202.644 653.209 201.696 651.99 200.717 650.876L202.592 649.657ZM204.561 648.579C205.457 649.548 206.41 650.704 207.42 652.048L205.545 653.376C204.514 651.959 203.556 650.808 202.67 649.923L204.561 648.579ZM207.913 660.501V657.829H227.084V660.501H207.913ZM235.936 651.876C235.759 652.417 235.613 652.787 235.498 652.985H240.186L241.28 652.594L242.561 653.86C243.04 654.475 242.946 654.902 242.28 655.141C241.873 657.204 241.28 659.042 240.498 660.657L242.514 662.001L240.78 664.548L238.983 663.235C237.514 665.35 235.191 667.204 232.014 668.798L229.295 666.766C232.962 665.246 235.405 663.527 236.623 661.61C235.509 660.891 234.16 660.1 232.577 659.235L234.03 657.063C235.967 657.928 237.353 658.61 238.186 659.11C238.853 657.756 239.243 656.61 239.358 655.673H234.108C233.149 657.412 231.801 659.147 230.061 660.876L227.78 659.313C230.759 656.23 232.717 652.949 233.655 649.469L236.108 650.485C237.181 651.016 237.123 651.48 235.936 651.876ZM262.842 666.032C259.165 663.74 256.649 661.417 255.295 659.063V662.173H258.67V664.61H255.295V669.048H252.78V664.61H249.592V662.173H252.78V659.469C251.717 661.824 249.238 664.141 245.342 666.423L244.014 663.923C247.899 661.798 250.53 659.048 251.905 655.673H244.998V653.235H252.78V649.548H254.811C256.019 649.693 256.181 650.079 255.295 650.704V653.235H263.17V655.673H256.186C257.769 658.506 260.415 661.063 264.123 663.344L262.842 666.032ZM269.686 663.626C272.53 661.032 274.478 658.459 275.53 655.907H270.592V653.485H276.17V649.376H278.186C279.363 649.511 279.53 649.897 278.686 650.532V653.485H284.592V655.907H279.342C280.061 658.074 282.019 660.641 285.217 663.61L283.561 665.985C280.926 663.36 279.301 661.407 278.686 660.126V662.501H281.061V664.938H278.686V668.954H276.17V664.938H274.03V662.501H276.17V660.219C275.389 661.938 273.816 663.818 271.452 665.86L269.686 663.626ZM271.311 651.188C271.071 652.438 270.754 653.563 270.358 654.563C271.149 654.865 271.108 655.23 270.233 655.657V669.126H267.717L267.858 659.782C267.91 659.865 267.498 660.344 266.623 661.219L264.983 659.079C266.931 656.443 268.29 653.131 269.061 649.141L271.405 650.001C272.248 650.688 272.217 651.084 271.311 651.188Z" fill="white"/>
<path d="M90.7204 126.822C89.9392 131.353 87.2152 134.65 82.5486 136.712L80.9392 135.009C85.21 133.27 87.7204 130.546 88.4704 126.837H84.0642C83.1475 128.337 82.0954 129.634 80.9079 130.728L79.0954 129.556C81.4183 127.452 82.9131 125.004 83.5798 122.212L85.3767 122.837C86.085 123.192 86.0902 123.499 85.3923 123.759C85.2465 124.218 85.1111 124.567 84.9861 124.806H88.8611L89.5642 124.415L90.8611 125.712C91.4131 126.264 91.3663 126.634 90.7204 126.822ZM98.2048 135.009C102.455 133.915 104.804 131.9 105.252 128.962H95.7986V126.931H105.642L106.299 126.712L107.564 127.494C108.085 127.921 108.08 128.27 107.549 128.54C106.882 132.728 104.309 135.488 99.8298 136.822L98.2048 135.009ZM106.205 125.4H96.9236V123.369H106.205V125.4ZM110.892 130.447C115.486 128.52 118.96 125.817 121.314 122.337L122.767 123.572C123.486 124.103 123.335 124.473 122.314 124.681C121.554 125.671 120.58 126.686 119.392 127.728V136.4H117.299V129.431C116.174 130.296 114.543 131.228 112.408 132.228L110.892 130.447ZM134.72 129.54C134.793 132.301 133.304 134.639 130.252 136.556L128.736 134.853C131.319 133.447 132.611 131.603 132.611 129.322V126.306H134.267C135.153 126.4 135.299 126.707 134.705 127.228V128.04C135.83 127.197 136.642 126.431 137.142 125.744L127.33 126.103L127.142 124.009L138.83 123.681L139.424 123.509L140.502 124.806C140.939 125.389 140.799 125.634 140.08 125.54C138.892 127.093 137.34 128.645 135.424 130.197L134.72 129.54ZM157.174 127.775C154.819 132.639 151.049 135.197 145.861 135.447C145.517 136.343 145.127 136.317 144.689 135.369L144.064 133.322C149.627 133.186 153.371 130.895 155.299 126.447L157.174 127.775ZM147.955 128.337C146.684 127.171 145.455 126.192 144.267 125.4L145.736 123.572C146.799 124.228 148.085 125.27 149.595 126.697L147.955 128.337ZM165.705 127.384C167.601 127.926 169.705 128.749 172.017 129.853L170.955 131.884C168.569 130.676 166.819 129.921 165.705 129.619V136.025H163.611V122.869H165.205C166.267 122.962 166.434 123.29 165.705 123.853V127.384V127.384Z" fill="#6B5353"/>
<path d="M306.4 135.462H308.384L309.338 129.322L309.431 128.744L309.509 129.322L310.509 135.462H312.494L314.072 124.087H312.056L311.275 130.462L311.228 130.931L311.15 130.462L310.197 124.087H308.634L307.728 130.415L307.666 130.884L307.603 130.447L306.853 124.087H304.838L306.4 135.462ZM319.439 135.619C320.262 135.619 320.97 135.462 321.564 135.15C322.168 134.827 322.606 134.468 322.877 134.072L321.798 132.9C321.548 133.223 321.22 133.468 320.814 133.634C320.418 133.79 320.007 133.869 319.58 133.869C319.278 133.869 318.996 133.822 318.736 133.728C318.486 133.634 318.262 133.504 318.064 133.337C317.866 133.171 317.71 132.983 317.595 132.775C317.481 132.567 317.387 132.296 317.314 131.962V131.931H323.048V131.009C323.048 130.395 322.96 129.832 322.783 129.322C322.616 128.801 322.371 128.358 322.048 127.994C321.715 127.629 321.309 127.348 320.83 127.15C320.351 126.952 319.809 126.853 319.205 126.853C318.611 126.853 318.064 126.962 317.564 127.181C317.064 127.389 316.632 127.686 316.267 128.072C315.903 128.457 315.616 128.915 315.408 129.447C315.21 129.978 315.111 130.567 315.111 131.212V131.525C315.111 132.098 315.215 132.634 315.423 133.134C315.632 133.624 315.923 134.051 316.298 134.415C316.684 134.79 317.142 135.087 317.673 135.306C318.205 135.514 318.793 135.619 319.439 135.619ZM319.189 128.603C319.46 128.603 319.7 128.65 319.908 128.744C320.127 128.827 320.309 128.942 320.455 129.087C320.601 129.233 320.715 129.41 320.798 129.619C320.882 129.817 320.923 130.03 320.923 130.259V130.431H317.361C317.413 130.16 317.491 129.915 317.595 129.697C317.7 129.468 317.83 129.27 317.986 129.103C318.132 128.947 318.304 128.827 318.502 128.744C318.71 128.65 318.939 128.603 319.189 128.603ZM332.556 131.322V131.15C332.556 130.639 332.509 130.16 332.416 129.712C332.332 129.264 332.197 128.863 332.009 128.509C331.884 128.28 331.744 128.072 331.588 127.884C331.431 127.697 331.259 127.535 331.072 127.4C330.832 127.223 330.556 127.087 330.244 126.994C329.942 126.9 329.608 126.853 329.244 126.853C328.983 126.853 328.739 126.879 328.509 126.931C328.28 126.983 328.072 127.067 327.884 127.181C327.749 127.254 327.619 127.343 327.494 127.447C327.379 127.54 327.27 127.65 327.166 127.775V123.462H324.994V135.462H326.947L327.041 134.556C327.134 134.671 327.228 134.78 327.322 134.884C327.426 134.978 327.535 135.061 327.65 135.134C327.858 135.29 328.098 135.41 328.369 135.494C328.64 135.577 328.936 135.619 329.259 135.619C329.624 135.619 329.952 135.572 330.244 135.478C330.546 135.384 330.817 135.254 331.056 135.087C331.327 134.9 331.556 134.671 331.744 134.4C331.942 134.119 332.103 133.811 332.228 133.478C332.332 133.165 332.41 132.832 332.463 132.478C332.525 132.113 332.556 131.728 332.556 131.322V131.322ZM330.384 131.15V131.322C330.384 131.54 330.374 131.754 330.353 131.962C330.343 132.16 330.317 132.343 330.275 132.509C330.223 132.749 330.145 132.962 330.041 133.15C329.936 133.327 329.806 133.473 329.65 133.587C329.535 133.671 329.4 133.738 329.244 133.79C329.088 133.832 328.91 133.853 328.713 133.853C328.494 133.853 328.296 133.827 328.119 133.775C327.942 133.723 327.791 133.65 327.666 133.556C327.551 133.473 327.452 133.379 327.369 133.275C327.296 133.171 327.228 133.051 327.166 132.915V129.556C327.207 129.452 327.254 129.358 327.306 129.275C327.369 129.192 327.436 129.113 327.509 129.04C327.645 128.905 327.811 128.801 328.009 128.728C328.207 128.655 328.436 128.619 328.697 128.619C328.895 128.619 329.067 128.639 329.213 128.681C329.369 128.723 329.504 128.79 329.619 128.884C329.806 129.02 329.942 129.176 330.025 129.353C330.119 129.52 330.197 129.707 330.259 129.915C330.301 130.103 330.332 130.301 330.353 130.509C330.374 130.718 330.384 130.931 330.384 131.15Z" fill="#6B5353"/>
<path d="M345.408 126.494H349.095V128.525H345.47V129.384C345.47 132.655 343.684 135.014 340.111 136.462L338.627 134.79C341.793 133.738 343.377 131.978 343.377 129.509V128.525H339.908L339.97 131.712H337.939L337.877 128.525H334.377V126.494H337.877L337.814 123.181H339.47C340.356 123.275 340.481 123.634 339.845 124.259L339.908 126.494H343.314V122.681H345.033C345.918 122.775 346.043 123.139 345.408 123.775V126.494V126.494ZM350.439 130.337V128.306H365.033V130.337H350.439ZM376.58 124.931C378.819 127.754 380.413 130.744 381.361 133.9L379.048 134.681C377.955 131.212 376.517 128.431 374.736 126.337L376.58 124.931V124.931ZM371.923 126.525C372.632 126.973 372.627 127.343 371.908 127.634C371.179 130.197 369.908 132.655 368.095 135.009L366.095 133.712C368.054 131.348 369.366 128.665 370.033 125.665L371.923 126.525V126.525ZM379.267 121.509C379.955 122.103 380.778 122.9 381.736 123.9L380.439 125.103C379.543 124.113 378.715 123.29 377.955 122.634L379.267 121.509ZM377.783 122.447C378.554 123.165 379.377 124.04 380.252 125.072L378.767 126.15C378.028 125.16 377.231 124.296 376.377 123.556L377.783 122.447Z" fill="#6B5353"/>
<path fill-rule="evenodd" clip-rule="evenodd" d="M542.262 478.457H772.436V537.701H542.262V478.457Z" fill="#00B26A"/>
<path d="M576.654 490.779C577.039 490.393 577.497 490.201 578.029 490.201C578.539 490.201 578.992 490.362 579.388 490.685C581.784 492.82 584.945 495.576 588.872 498.951L586.544 501.076C583.649 498.409 581.008 495.982 578.622 493.794C578.227 493.451 578.003 493.279 577.951 493.279C577.815 493.279 577.607 493.44 577.326 493.763C575.805 495.534 574.237 497.289 572.622 499.029L570.591 496.669C572.81 494.513 574.831 492.55 576.654 490.779ZM603.013 493.591C602.659 496.935 601.69 499.393 600.107 500.966C598.555 502.518 596.43 503.784 593.732 504.763L592.232 502.576C594.909 501.701 596.904 500.612 598.216 499.31C599.602 497.925 600.404 495.362 600.622 491.622L602.763 492.326C603.815 492.68 603.899 493.102 603.013 493.591ZM595.794 496.701C595.065 495.065 594.31 493.659 593.529 492.482L595.716 491.341C596.664 492.539 597.482 493.951 598.169 495.576L595.794 496.701ZM591.81 497.904C591.081 496.195 590.3 494.727 589.466 493.497L591.747 492.357C592.633 493.555 593.414 494.987 594.091 496.654L591.81 497.904ZM618.169 490.576C618.628 491.138 618.544 491.534 617.919 491.763C617.524 493.732 616.951 495.487 616.201 497.029L618.122 498.31L616.482 500.716L614.763 499.466C613.378 501.477 611.169 503.237 608.138 504.747L605.576 502.857C609.055 501.399 611.378 499.753 612.544 497.919C611.482 497.232 610.201 496.482 608.701 495.669L610.076 493.607C611.909 494.44 613.227 495.096 614.029 495.576C614.664 494.274 615.039 493.169 615.154 492.263H610.138C609.211 493.93 607.925 495.586 606.279 497.232L604.122 495.747C606.956 492.81 608.82 489.69 609.716 486.388L612.029 487.341C613.039 487.852 612.987 488.294 611.872 488.669C611.695 489.18 611.555 489.534 611.451 489.732H615.919L616.966 489.357L618.169 490.576ZM617.326 486.732C618.399 487.555 619.508 488.602 620.654 489.872L618.997 491.154C617.904 489.997 616.789 488.951 615.654 488.013L617.326 486.732ZM619.107 485.576C620.138 486.284 621.195 487.274 622.279 488.544L620.654 489.919C619.55 488.701 618.482 487.68 617.451 486.857L619.107 485.576ZM636.872 492.076H641.482V494.607H636.951V495.685C636.951 499.779 634.721 502.727 630.263 504.529L628.404 502.451C632.362 501.128 634.341 498.925 634.341 495.841V494.607H630.013L630.091 498.591H627.56L627.482 494.607H623.091V492.076H627.466L627.388 487.935H629.451C630.555 488.05 630.711 488.503 629.919 489.294L629.982 492.076H634.263V487.31H636.404C637.508 487.425 637.664 487.878 636.872 488.669V492.076ZM642.826 497.013C648.565 494.607 652.904 491.227 655.841 486.872L657.654 488.419C658.55 489.086 658.362 489.55 657.091 489.81C656.143 491.05 654.925 492.315 653.435 493.607V504.451H650.826V495.732C649.419 496.815 647.383 497.982 644.716 499.232L642.826 497.013ZM672.747 491.357C671.81 492.982 670.867 494.425 669.919 495.685C671.961 497.258 674.185 499.274 676.591 501.732L674.404 503.591C672.06 501.122 669.977 499.19 668.154 497.794C666.268 499.826 663.925 501.768 661.122 503.622L658.997 501.732C664.747 497.982 668.3 494.555 669.654 491.451L661.419 491.982L661.091 489.279L670.544 488.872L671.669 488.591L673.076 490.013C673.805 490.742 673.695 491.19 672.747 491.357ZM676.607 490.107C675.492 488.815 674.404 487.737 673.341 486.872L674.966 485.388C676.102 486.274 677.175 487.32 678.185 488.529L676.607 490.107ZM674.388 491.341C673.544 490.362 672.44 489.253 671.076 488.013L672.888 486.56C674.003 487.55 675.107 488.622 676.201 489.779L674.388 491.341ZM692.529 489.841C694.872 492.247 696.477 495.138 697.341 498.513L694.872 499.513C693.872 495.909 692.393 493.185 690.435 491.341L692.529 489.841ZM690.544 496.622C690.544 499.758 690.06 501.805 689.091 502.763C688.497 503.367 687.805 503.669 687.013 503.669C685.899 503.669 684.737 502.966 683.529 501.56L685.013 499.513C685.992 500.492 686.633 500.982 686.935 500.982C687.081 500.982 687.221 500.919 687.357 500.794C687.846 500.294 688.091 498.8 688.091 496.31C688.091 494.966 687.977 494.175 687.747 493.935C687.664 493.862 687.445 493.826 687.091 493.826C686.643 493.826 686.096 493.867 685.451 493.951C684.399 497.659 683.055 501.008 681.419 503.997L678.81 503.091C680.487 500.487 681.831 497.529 682.841 494.216C682.112 494.32 681.06 494.435 679.685 494.56L679.466 491.997C680.685 491.997 682.029 491.93 683.497 491.794C683.914 490.367 684.305 488.675 684.669 486.716L686.763 487.419C688.086 487.971 688.122 488.44 686.872 488.826C686.602 489.774 686.362 490.669 686.154 491.513C686.393 491.471 686.862 491.451 687.56 491.451C688.404 491.451 689.044 491.675 689.482 492.122C690.19 492.82 690.544 494.32 690.544 496.622ZM694.435 485.81C695.581 486.435 696.852 487.32 698.247 488.466L696.732 489.982C695.409 488.951 694.138 488.065 692.919 487.326L694.435 485.81ZM695.091 491.857C693.716 490.721 692.477 489.81 691.372 489.122L692.872 487.607C694.018 488.232 695.289 489.117 696.685 490.263L695.091 491.857ZM698.794 499.794C700.732 496.899 701.951 493.747 702.451 490.341L704.794 490.919C705.94 491.346 705.992 491.737 704.951 492.091C704.346 495.112 703.102 498.19 701.216 501.326L698.794 499.794ZM712.841 490.326C714.872 493.044 716.435 495.945 717.529 499.029L714.81 500.216C713.789 497.05 712.399 494.133 710.638 491.466L712.841 490.326ZM706.935 501.763C706.935 501.826 706.904 501.857 706.841 501.857V487.232H709.013C710.201 487.471 710.346 487.888 709.451 488.482V502.872C709.451 503.82 708.977 504.294 708.029 504.294H705.56L704.638 501.763H706.935ZM725.732 492.904C723.784 493.05 721.664 493.122 719.372 493.122L718.654 490.747C721.56 490.747 723.612 490.706 724.81 490.622C724.404 489.487 724.065 488.122 723.794 486.529H726.044C727.065 486.758 727.253 487.154 726.607 487.716C726.774 488.529 727.029 489.425 727.372 490.404C728.966 490.268 730.539 490.018 732.091 489.654L732.669 492.201C730.857 492.451 729.425 492.612 728.372 492.685C729.185 494.237 730.753 495.81 733.076 497.404L731.419 499.388C729.357 498.44 727.419 497.966 725.607 497.966C724.003 497.966 722.899 498.263 722.294 498.857C722.065 499.096 721.951 499.445 721.951 499.904C721.951 500.31 722.143 500.711 722.529 501.107C723.185 501.753 724.81 502.076 727.404 502.076H730.654L730.076 504.607H726.779C723.956 504.607 721.961 504.018 720.794 502.841C719.93 501.987 719.497 501.008 719.497 499.904C719.497 498.8 719.826 497.925 720.482 497.279C721.492 496.258 723.044 495.747 725.138 495.747C727.201 495.747 728.346 495.987 728.576 496.466C727.086 495.039 726.138 493.852 725.732 492.904ZM734.341 495.685C734.341 494.987 734.669 494.341 735.326 493.747C738.69 490.591 740.935 488.096 742.06 486.263L743.857 487.654C744.836 488.747 744.675 489.201 743.372 489.013C742.675 490.044 740.649 492.133 737.294 495.279C737.169 495.404 737.107 495.487 737.107 495.529C737.107 495.706 737.159 495.831 737.263 495.904C740.201 498.216 742.649 500.492 744.607 502.732L742.607 504.716C740.617 502.372 738.3 500.065 735.654 497.794C734.779 497.034 734.341 496.331 734.341 495.685Z" fill="white"/>
<path d="M588.185 528.685C586.466 528.685 584.992 528.117 583.763 526.982C583.294 527.534 582.242 528.268 580.607 529.185L579.701 526.357C580.503 526.138 581.425 525.69 582.466 525.013V520.56H580.044V518.263H584.841V524.966C585.716 525.758 586.935 526.154 588.497 526.154H598.669L598.216 528.685H588.185ZM589.154 512.669C590.622 513.024 591.482 513.253 591.732 513.357L592.029 513.138H585.669V510.841H594.872L595.388 510.529L596.794 511.56C597.617 512.237 597.451 512.628 596.294 512.732L593.935 514.31L594.826 514.716L594.169 515.372H597.107V524.685C597.107 525.685 596.607 526.185 595.607 526.185H593.497L593.388 523.888H594.826C594.826 523.951 594.794 523.982 594.732 523.982V522.904H592.576V525.951H590.201V522.904H588.201V526.263H585.826V515.372H589.919C589.044 515.018 588.175 514.732 587.31 514.513L589.154 512.669ZM592.576 517.435V518.107H594.732V517.435H592.576ZM588.201 517.435V518.107H590.201V517.435H588.201ZM590.201 520.169H588.201V520.841H590.201V520.169ZM594.732 520.169H592.576V520.841H594.732V520.169ZM582.31 510.56C583.977 511.602 585.143 512.654 585.81 513.716L583.935 515.701C582.935 514.44 581.867 513.367 580.732 512.482L582.31 510.56ZM599.451 519.529C601.524 517.07 602.753 514.008 603.138 510.341L605.497 510.966C606.091 511.55 606.065 511.935 605.419 512.122C605.18 513.487 604.904 514.612 604.591 515.497C605.591 515.591 605.596 515.966 604.607 516.622V528.997H602.232L602.357 519.966C602.409 520.029 602.008 520.56 601.154 521.56L599.451 519.529ZM614.732 524.31H608.591V525.763H614.732V524.31ZM606.216 522.013H617.107V528.763H614.732V528.06H608.591V528.997H606.216V522.013ZM606.685 521.497V519.201H616.326V521.497H606.685ZM606.685 518.763V516.466H616.326V518.763H606.685ZM604.888 513.81H618.279V516.107H604.888V513.81ZM606.685 510.997H616.326V513.294H606.685V510.997ZM622.857 516.341V510.607H635.544V516.341H622.857ZM620.201 518.529V516.466H638.279V518.529H620.201ZM630.31 524.31V524.357H636.013V526.419H630.31V526.544H638.513V528.607H619.966V526.544H628.169V526.419H622.388V524.357H628.169V524.31H625.919H622.857V518.654H635.544V524.31H630.31ZM633.404 520.607V520.404H630.31V520.607H633.404ZM630.31 522.56H633.404V522.357H630.31V522.56ZM624.997 512.56H633.404V512.357H624.997V512.56ZM624.997 514.591H633.404V514.31H624.997V514.591ZM624.997 520.607H628.169V520.404H624.997V520.607ZM624.997 522.56H628.169V522.357H624.997V522.56ZM646.216 517.232C646.237 517.138 646.555 517.091 647.169 517.091C647.961 517.091 648.602 517.341 649.091 517.841C649.477 518.227 649.69 518.706 649.732 519.279C650.961 518.82 652.701 518.237 654.951 517.529L655.732 520.247C653.43 520.602 651.492 521.081 649.919 521.685V525.247H647.544V522.669C646.409 523.201 645.622 523.68 645.185 524.107C644.695 524.607 644.451 525.086 644.451 525.544C644.451 525.742 644.565 525.961 644.794 526.201C645.086 526.482 645.695 526.622 646.622 526.622H653.591V528.919H646.544C644.763 528.919 643.497 528.539 642.747 527.779C642.143 527.185 641.841 526.44 641.841 525.544C641.841 524.596 642.221 523.747 642.982 522.997C644.055 521.914 645.544 520.982 647.451 520.201C647.419 519.878 647.336 519.643 647.201 519.497C647.065 519.372 646.716 519.31 646.154 519.31C645.216 519.31 643.622 520.3 641.372 522.279L639.404 520.31C642.081 518.664 643.742 517.175 644.388 515.841C643.399 515.914 642.055 516.013 640.357 516.138L639.872 513.747C642.07 513.685 643.914 513.607 645.404 513.513C645.591 513.065 645.899 511.987 646.326 510.279L648.232 510.779C649.399 511.247 649.466 511.69 648.435 512.107C648.268 512.659 648.128 513.081 648.013 513.372C649.451 513.247 651.159 513.034 653.138 512.732L653.497 515.216C651.175 515.393 649.076 515.555 647.201 515.701C646.732 516.628 646.404 517.138 646.216 517.232ZM671.247 524.544H668.872V512.872H670.794C671.909 513.008 672.06 513.367 671.247 513.951V524.544ZM667.732 513.044C667.503 513.784 666.914 514.846 665.966 516.232L663.591 514.982C664.435 513.826 665.133 512.513 665.685 511.044L667.544 511.732C668.701 512.19 668.763 512.628 667.732 513.044ZM659.294 516.107C658.732 514.669 658.081 513.477 657.341 512.529L659.591 511.279C660.445 512.206 661.164 513.409 661.747 514.888L659.294 516.107ZM667.81 527.263C667.81 528.211 667.336 528.685 666.388 528.685H664.247L663.888 526.388H665.529C665.529 526.451 665.497 526.482 665.435 526.482V524.31H660.154V528.763H657.779V515.841H661.529V510.372H663.451C664.565 510.508 664.716 510.867 663.904 511.451V515.841H667.81V527.263ZM660.154 522.013H665.435V521.263H660.154V522.013ZM665.435 518.138H660.154V518.966H665.435V518.138ZM672.388 510.841H674.31C675.425 510.977 675.576 511.336 674.763 511.919V527.185C674.763 528.185 674.289 528.685 673.341 528.685H671.044L670.685 526.388H672.482C672.482 526.451 672.451 526.482 672.388 526.482V510.841ZM691.622 520.044C691.883 519.367 692.227 517.982 692.654 515.888L694.747 516.935C695.404 517.581 695.31 517.987 694.466 518.154C694.081 519.997 693.388 521.815 692.388 523.607C693.034 525.096 693.352 525.836 693.341 525.826C693.539 525.596 693.638 524.747 693.638 523.279L695.966 524.622C695.664 527.185 695.055 528.56 694.138 528.747C693.044 529.008 691.925 528.039 690.779 525.841C690.008 526.904 688.419 527.935 686.013 528.935L684.497 526.935C687.341 525.789 689.133 524.596 689.872 523.357C689.31 520.211 689.008 517.56 688.966 515.404H683.982V521.56C683.982 524.195 683.206 526.706 681.654 529.091L679.576 527.591C681.086 525.466 681.841 523.065 681.841 520.388V513.107H688.951V510.138H690.872C691.987 510.274 692.138 510.633 691.326 511.216V513.107H695.232V515.404H691.341C691.435 517.862 691.529 519.409 691.622 520.044ZM692.904 513.951C692.331 513.232 691.602 512.539 690.716 511.872L692.357 510.607C693.294 511.076 694.039 511.669 694.591 512.388L692.904 513.951ZM679.341 527.747C679.883 528.81 679.56 529.081 678.372 528.56L676.544 527.216C677.909 525.05 678.982 522.8 679.763 520.466L681.779 521.763C681.3 523.763 680.487 525.758 679.341 527.747ZM684.185 518.732H689.216V524.701H686.326V526.029H684.185V518.732ZM686.326 522.638H687.076V520.794H686.326V522.638ZM684.029 518.294V515.997H689.294V518.294H684.029ZM680.029 520.326C678.883 519.117 677.841 518.18 676.904 517.513L678.482 515.388C679.607 516.117 680.643 517.018 681.591 518.091L680.029 520.326ZM679.451 510.779C680.565 511.57 681.57 512.513 682.466 513.607L680.669 515.622C679.659 514.414 678.685 513.44 677.747 512.701L679.451 510.779ZM697.232 511.779H715.232V514.31H712.81V526.716C712.81 527.977 712.206 528.607 710.997 528.607H707.997L707.544 526.076H710.294C710.294 526.138 710.263 526.169 710.201 526.169V514.31H697.232V511.779ZM708.357 524.622H705.747V523.919H702.263V525.404H699.654V516.232H708.357V524.622ZM705.747 518.529H702.263V521.622H705.747V518.529ZM724.669 511.826C725.826 513.096 726.872 514.513 727.81 516.076L725.638 517.341L724.935 516.279L718.544 516.935C718.44 517.622 718.07 517.643 717.435 516.997L716.81 514.513H719.154L720.747 510.216L723.154 510.794C723.8 511.44 723.737 511.82 722.966 511.935L721.576 514.388L723.732 514.247L722.732 512.919L724.669 511.826ZM720.857 519.232V519.747H723.716V519.232H720.857ZM720.857 522.044V522.56H723.716V522.044H720.857ZM726.091 516.935V527.185C726.091 528.289 725.539 528.841 724.435 528.841H722.763L722.404 526.544H723.888C723.888 526.659 723.831 526.716 723.716 526.716V524.857H720.857V528.919H718.482V516.935H726.091ZM729.154 519.982C730.268 520.117 730.419 520.477 729.607 521.06V522.31L733.826 520.747L734.826 522.435C734.961 523.404 734.654 523.675 733.904 523.247L729.607 524.372V526.247C729.607 526.341 729.628 526.388 729.669 526.388H732.794C732.919 526.388 732.992 526.32 733.013 526.185L733.326 524.451L735.763 524.904L735.388 527.107C735.19 528.159 734.612 528.685 733.654 528.685H729.044C727.836 528.685 727.232 528.107 727.232 526.951V519.982H729.154ZM734.513 514.06C734.649 515.039 734.346 515.315 733.607 514.888L729.607 516.013V517.576C729.607 517.669 729.628 517.716 729.669 517.716H732.794C732.867 517.716 732.914 517.628 732.935 517.451L733.138 515.607L735.576 516.076L735.388 518.169C735.253 519.399 734.622 520.013 733.497 520.013H729.044C727.836 520.013 727.232 519.435 727.232 518.279V510.919H729.154C730.268 511.055 730.419 511.414 729.607 511.997V513.904L733.341 512.31L734.513 514.06Z" fill="white"/>
<path fill-rule="evenodd" clip-rule="evenodd" d="M278.979 315.045L283.45 310.558L292.549 319.624L301.647 310.558L306.118 315.045L297.036 324.094L306.118 333.144L301.647 337.631L292.549 328.565L283.45 337.631L278.979 333.144L288.062 324.094L278.979 315.045Z" fill="#FF668A"/>
<path fill-rule="evenodd" clip-rule="evenodd" d="M278.979 315.045L283.45 310.558L292.549 319.624L301.647 310.558L306.118 315.045L297.036 324.094L306.118 333.144L301.647 337.631L292.549 328.565L283.45 337.631L278.979 333.144L288.062 324.094L278.979 315.045Z" stroke="white" stroke-miterlimit="10" stroke-linejoin="round"/>
<path fill-rule="evenodd" clip-rule="evenodd" d="M121.454 142.9C121.454 142.9 121.454 142.9 121.454 142.9L129.643 142.9C129.643 142.9 129.643 142.9 129.643 142.9C129.643 142.9 129.643 142.9 129.643 142.9L129.643 381.609C129.643 381.609 129.643 381.609 129.643 381.609L121.454 381.609C121.454 381.609 121.454 381.609 121.454 381.609L121.454 142.9Z" fill="#CAAE9D"/>
<path fill-rule="evenodd" clip-rule="evenodd" d="M342.69 142.9C342.69 142.9 342.69 142.9 342.69 142.9L350.879 142.9C350.879 142.9 350.879 142.9 350.879 142.9C350.879 142.9 350.879 142.9 350.879 142.9L350.879 381.609C350.879 381.609 350.879 381.609 350.879 381.609L342.69 381.609C342.69 381.609 342.69 381.609 342.69 381.609L342.69 142.9Z" fill="#CAAE9D"/>
<path d="M149.1 231.68L341.001 200.576" stroke="#6B5353" stroke-width="3" stroke-miterlimit="10" stroke-linejoin="round"/>
<path fill-rule="evenodd" clip-rule="evenodd" d="M148.307 226.789L135.661 233.859L149.893 236.572L148.307 226.789Z" fill="#6B5353" stroke="#6B5353" stroke-width="3" stroke-miterlimit="10"/>
<path d="M323.305 280.905L131.404 249.801" stroke="#6B5353" stroke-width="3" stroke-miterlimit="10" stroke-linejoin="round"/>
<path fill-rule="evenodd" clip-rule="evenodd" d="M322.513 285.796L336.744 283.083L324.098 276.013L322.513 285.796Z" fill="#6B5353" stroke="#6B5353" stroke-width="3" stroke-miterlimit="10"/>
<path d="M149.1 319.68L341.001 288.576" stroke="#6B5353" stroke-width="3" stroke-miterlimit="10" stroke-linejoin="round"/>
<path fill-rule="evenodd" clip-rule="evenodd" d="M148.307 314.789L135.661 321.859L149.893 324.572L148.307 314.789Z" fill="#6B5353" stroke="#6B5353" stroke-width="3" stroke-miterlimit="10"/>
<path d="M322.284 323.534L341.008 320.577" stroke="#6B5353" stroke-width="3" stroke-miterlimit="10" stroke-linejoin="round"/>
<path fill-rule="evenodd" clip-rule="evenodd" d="M321.511 318.639L308.836 325.657L323.056 328.428L321.511 318.639Z" fill="#6B5353" stroke="#6B5353" stroke-width="3" stroke-miterlimit="10"/>
<path d="M691.305 192.905L499.404 161.801" stroke="#6B5353" stroke-width="3" stroke-miterlimit="10" stroke-linejoin="round"/>
<path fill-rule="evenodd" clip-rule="evenodd" d="M690.513 197.796L704.744 195.083L692.098 188.013L690.513 197.796Z" fill="#6B5353" stroke="#6B5353" stroke-width="3" stroke-miterlimit="10"/>
<path fill-rule="evenodd" clip-rule="evenodd" d="M692.967 64.912C692.967 63.9498 693.747 63.1697 694.709 63.1697H727.726C728.189 63.1697 728.632 63.3533 728.958 63.68C729.285 64.0068 729.469 64.4499 729.469 64.912V113.905C729.469 114.867 728.689 115.647 727.726 115.647H694.709C693.747 115.647 692.967 114.867 692.967 113.905V64.912Z" fill="#6B5353"/>
<path fill-rule="evenodd" clip-rule="evenodd" d="M698.993 71.1251C698.993 70.9817 699.109 70.8655 699.253 70.8655H723.439C723.508 70.8655 723.574 70.8929 723.623 70.9416C723.672 70.9902 723.699 71.0563 723.699 71.1251V76.0438C723.699 76.1871 723.583 76.3033 723.439 76.3033H699.253C699.109 76.3033 698.993 76.1871 698.993 76.0438V71.1251Z" fill="white"/>
<path fill-rule="evenodd" clip-rule="evenodd" d="M698.865 79.7375C698.865 79.5942 698.981 79.478 699.124 79.478H723.311C723.38 79.478 723.446 79.5053 723.495 79.554C723.543 79.6027 723.571 79.6687 723.571 79.7375V84.6562C723.571 84.7996 723.455 84.9158 723.311 84.9158H699.124C698.981 84.9158 698.865 84.7996 698.865 84.6562V79.7375Z" fill="white"/>
<path fill-rule="evenodd" clip-rule="evenodd" d="M707.849 106.64C707.849 105.138 709.274 103.921 711.032 103.921C712.79 103.921 714.215 105.138 714.215 106.64C714.215 108.141 712.79 109.359 711.032 109.359C709.274 109.359 707.849 108.141 707.849 106.64V106.64Z" fill="white"/>
<path fill-rule="evenodd" clip-rule="evenodd" d="M465.997 72.2886C465.997 71.6206 466.538 71.079 467.206 71.079H510.55C510.871 71.079 511.179 71.2065 511.405 71.4333C511.632 71.6602 511.76 71.9678 511.76 72.2886V98.5393C511.76 99.2074 511.218 99.7489 510.55 99.7489H467.206C466.538 99.7489 465.997 99.2074 465.997 98.5393V72.2886Z" fill="#6B5353"/>
<path fill-rule="evenodd" clip-rule="evenodd" d="M459.073 111.908L466.469 101.701H511.675L519.071 111.908H459.073Z" fill="#6B5353"/>
<path fill-rule="evenodd" clip-rule="evenodd" d="M459.073 111.908L466.469 101.701H511.675L519.071 111.908H459.073Z" stroke="#6B5353" stroke-miterlimit="10" stroke-linejoin="round"/>
<path fill-rule="evenodd" clip-rule="evenodd" d="M479.343 110.58L482.288 107.028H495.857L498.802 110.58H479.343Z" fill="white"/>
<path fill-rule="evenodd" clip-rule="evenodd" d="M479.343 110.58L482.288 107.028H495.857L498.802 110.58H479.343Z" stroke="#6B5353" stroke-miterlimit="10" stroke-linejoin="round"/>
<path fill-rule="evenodd" clip-rule="evenodd" d="M469.149 74.0123C469.149 74.0121 469.149 74.012 469.149 74.012L508.597 74.0123C508.597 74.0123 508.597 74.0123 508.597 74.0124C508.598 74.0125 508.598 74.0125 508.598 74.0126L508.597 96.8142C508.597 96.8144 508.597 96.8146 508.597 96.8146L469.149 96.8142C469.149 96.8142 469.149 96.8141 469.149 96.8139L469.149 74.0123Z" fill="white"/>
<path d="M458.72 126.822C457.939 131.353 455.215 134.65 450.549 136.712L448.939 135.009C453.21 133.27 455.72 130.546 456.47 126.837H452.064C451.148 128.337 450.095 129.634 448.908 130.728L447.095 129.556C449.418 127.452 450.913 125.004 451.58 122.212L453.377 122.837C454.085 123.192 454.09 123.499 453.392 123.759C453.246 124.218 453.111 124.567 452.986 124.806H456.861L457.564 124.415L458.861 125.712C459.413 126.264 459.366 126.634 458.72 126.822ZM466.205 135.009C470.455 133.915 472.804 131.9 473.252 128.962H463.799V126.931H473.642L474.299 126.712L475.564 127.494C476.085 127.921 476.08 128.27 475.549 128.54C474.882 132.728 472.309 135.488 467.83 136.822L466.205 135.009ZM474.205 125.4H464.924V123.369H474.205V125.4ZM478.892 130.447C483.486 128.52 486.96 125.817 489.314 122.337L490.767 123.572C491.486 124.103 491.335 124.473 490.314 124.681C489.554 125.671 488.58 126.686 487.392 127.728V136.4H485.299V129.431C484.174 130.296 482.543 131.228 480.408 132.228L478.892 130.447ZM502.72 129.54C502.793 132.301 501.304 134.639 498.252 136.556L496.736 134.853C499.319 133.447 500.611 131.603 500.611 129.322V126.306H502.267C503.153 126.4 503.299 126.707 502.705 127.228V128.04C503.83 127.197 504.642 126.431 505.142 125.744L495.33 126.103L495.142 124.009L506.83 123.681L507.424 123.509L508.502 124.806C508.939 125.389 508.799 125.634 508.08 125.54C506.892 127.093 505.34 128.645 503.424 130.197L502.72 129.54ZM525.174 127.775C522.819 132.639 519.049 135.197 513.861 135.447C513.517 136.343 513.127 136.317 512.689 135.369L512.064 133.322C517.627 133.186 521.372 130.895 523.299 126.447L525.174 127.775ZM515.955 128.337C514.684 127.171 513.455 126.192 512.267 125.4L513.736 123.572C514.799 124.228 516.085 125.27 517.595 126.697L515.955 128.337ZM533.705 127.384C535.601 127.926 537.705 128.749 540.017 129.853L538.955 131.884C536.569 130.676 534.819 129.921 533.705 129.619V136.025H531.611V122.869H533.205C534.267 122.962 534.434 123.29 533.705 123.853V127.384V127.384Z" fill="#6B5353"/>
<path d="M674.4 135.462H676.384L677.338 129.322L677.431 128.744L677.509 129.322L678.509 135.462H680.494L682.072 124.087H680.056L679.275 130.462L679.228 130.931L679.15 130.462L678.197 124.087H676.634L675.728 130.415L675.666 130.884L675.603 130.447L674.853 124.087H672.838L674.4 135.462ZM687.439 135.619C688.262 135.619 688.97 135.462 689.564 135.15C690.168 134.827 690.606 134.468 690.877 134.072L689.798 132.9C689.548 133.223 689.22 133.468 688.814 133.634C688.418 133.79 688.007 133.869 687.58 133.869C687.278 133.869 686.996 133.822 686.736 133.728C686.486 133.634 686.262 133.504 686.064 133.337C685.866 133.171 685.71 132.983 685.595 132.775C685.481 132.567 685.387 132.296 685.314 131.962V131.931H691.048V131.009C691.048 130.395 690.96 129.832 690.783 129.322C690.616 128.801 690.371 128.358 690.048 127.994C689.715 127.629 689.309 127.348 688.83 127.15C688.351 126.952 687.809 126.853 687.205 126.853C686.611 126.853 686.064 126.962 685.564 127.181C685.064 127.389 684.632 127.686 684.267 128.072C683.903 128.457 683.616 128.915 683.408 129.447C683.21 129.978 683.111 130.567 683.111 131.212V131.525C683.111 132.098 683.215 132.634 683.423 133.134C683.632 133.624 683.923 134.051 684.298 134.415C684.684 134.79 685.142 135.087 685.673 135.306C686.205 135.514 686.793 135.619 687.439 135.619ZM687.189 128.603C687.46 128.603 687.7 128.65 687.908 128.744C688.127 128.827 688.309 128.942 688.455 129.087C688.601 129.233 688.715 129.41 688.798 129.619C688.882 129.817 688.923 130.03 688.923 130.259V130.431H685.361C685.413 130.16 685.491 129.915 685.595 129.697C685.7 129.468 685.83 129.27 685.986 129.103C686.132 128.947 686.304 128.827 686.502 128.744C686.71 128.65 686.939 128.603 687.189 128.603ZM700.556 131.322V131.15C700.556 130.639 700.509 130.16 700.416 129.712C700.332 129.264 700.197 128.863 700.009 128.509C699.884 128.28 699.744 128.072 699.588 127.884C699.431 127.697 699.259 127.535 699.072 127.4C698.832 127.223 698.556 127.087 698.244 126.994C697.942 126.9 697.608 126.853 697.244 126.853C696.983 126.853 696.739 126.879 696.509 126.931C696.28 126.983 696.072 127.067 695.884 127.181C695.749 127.254 695.619 127.343 695.494 127.447C695.379 127.54 695.27 127.65 695.166 127.775V123.462H692.994V135.462H694.947L695.041 134.556C695.134 134.671 695.228 134.78 695.322 134.884C695.426 134.978 695.535 135.061 695.65 135.134C695.858 135.29 696.098 135.41 696.369 135.494C696.64 135.577 696.936 135.619 697.259 135.619C697.624 135.619 697.952 135.572 698.244 135.478C698.546 135.384 698.817 135.254 699.056 135.087C699.327 134.9 699.556 134.671 699.744 134.4C699.942 134.119 700.103 133.811 700.228 133.478C700.332 133.165 700.41 132.832 700.463 132.478C700.525 132.113 700.556 131.728 700.556 131.322V131.322ZM698.384 131.15V131.322C698.384 131.54 698.374 131.754 698.353 131.962C698.343 132.16 698.317 132.343 698.275 132.509C698.223 132.749 698.145 132.962 698.041 133.15C697.936 133.327 697.806 133.473 697.65 133.587C697.535 133.671 697.4 133.738 697.244 133.79C697.088 133.832 696.91 133.853 696.713 133.853C696.494 133.853 696.296 133.827 696.119 133.775C695.942 133.723 695.791 133.65 695.666 133.556C695.551 133.473 695.452 133.379 695.369 133.275C695.296 133.171 695.228 133.051 695.166 132.915V129.556C695.207 129.452 695.254 129.358 695.306 129.275C695.369 129.192 695.436 129.113 695.509 129.04C695.645 128.905 695.811 128.801 696.009 128.728C696.207 128.655 696.436 128.619 696.697 128.619C696.895 128.619 697.067 128.639 697.213 128.681C697.369 128.723 697.504 128.79 697.619 128.884C697.806 129.02 697.942 129.176 698.025 129.353C698.119 129.52 698.197 129.707 698.259 129.915C698.301 130.103 698.332 130.301 698.353 130.509C698.374 130.718 698.384 130.931 698.384 131.15Z" fill="#6B5353"/>
<path d="M713.408 126.494H717.095V128.525H713.47V129.384C713.47 132.655 711.684 135.014 708.111 136.462L706.627 134.79C709.793 133.738 711.377 131.978 711.377 129.509V128.525H707.908L707.97 131.712H705.939L705.877 128.525H702.377V126.494H705.877L705.814 123.181H707.47C708.356 123.275 708.481 123.634 707.845 124.259L707.908 126.494H711.314V122.681H713.033C713.918 122.775 714.043 123.139 713.408 123.775V126.494V126.494ZM718.439 130.337V128.306H733.033V130.337H718.439ZM744.58 124.931C746.819 127.754 748.413 130.744 749.361 133.9L747.048 134.681C745.955 131.212 744.517 128.431 742.736 126.337L744.58 124.931V124.931ZM739.923 126.525C740.632 126.973 740.627 127.343 739.908 127.634C739.179 130.197 737.908 132.655 736.095 135.009L734.095 133.712C736.054 131.348 737.366 128.665 738.033 125.665L739.923 126.525V126.525ZM747.267 121.509C747.955 122.103 748.778 122.9 749.736 123.9L748.439 125.103C747.543 124.113 746.715 123.29 745.955 122.634L747.267 121.509ZM745.783 122.447C746.554 123.165 747.377 124.04 748.252 125.072L746.767 126.15C746.028 125.16 745.231 124.296 744.377 123.556L745.783 122.447Z" fill="#6B5353"/>
<path fill-rule="evenodd" clip-rule="evenodd" d="M489.454 142.9C489.454 142.9 489.454 142.9 489.454 142.9L497.643 142.9C497.643 142.9 497.643 142.9 497.643 142.9C497.643 142.9 497.643 142.9 497.643 142.9L497.643 381.609C497.643 381.609 497.643 381.609 497.643 381.609L489.454 381.609C489.454 381.609 489.454 381.609 489.454 381.609L489.454 142.9Z" fill="#CAAE9D"/>
<path fill-rule="evenodd" clip-rule="evenodd" d="M710.69 142.9C710.69 142.9 710.69 142.9 710.69 142.9L718.879 142.9C718.879 142.9 718.879 142.9 718.879 142.9C718.879 142.9 718.879 142.9 718.879 142.9L718.879 381.609C718.879 381.609 718.879 381.609 718.879 381.609L710.69 381.609C710.69 381.609 710.69 381.609 710.69 381.609L710.69 142.9Z" fill="#CAAE9D"/>
<path d="M517.1 231.68L709.001 200.576" stroke="#6B5353" stroke-width="3" stroke-miterlimit="10" stroke-linejoin="round"/>
<path fill-rule="evenodd" clip-rule="evenodd" d="M516.307 226.789L503.661 233.859L517.893 236.572L516.307 226.789Z" fill="#6B5353" stroke="#6B5353" stroke-width="3" stroke-miterlimit="10"/>
<path d="M517.1 271.68L709.001 240.576" stroke="#FF668A" stroke-width="3" stroke-miterlimit="10" stroke-linejoin="round"/>
<path fill-rule="evenodd" clip-rule="evenodd" d="M516.307 266.789L503.661 273.859L517.893 276.572L516.307 266.789Z" fill="#FF668A" stroke="#FF668A" stroke-width="3" stroke-miterlimit="10"/>
<path d="M517.1 351.68L709.001 320.576" stroke="#FF668A" stroke-width="3" stroke-miterlimit="10" stroke-linejoin="round"/>
<path fill-rule="evenodd" clip-rule="evenodd" d="M516.307 346.789L503.661 353.859L517.893 356.572L516.307 346.789Z" fill="#FF668A" stroke="#FF668A" stroke-width="3" stroke-miterlimit="10"/>
<path d="M691.233 273.215L499.332 242.11" stroke="#FF668A" stroke-width="3" stroke-miterlimit="10" stroke-linejoin="round"/>
<path fill-rule="evenodd" clip-rule="evenodd" d="M690.44 278.106L704.672 275.393L692.026 268.323L690.44 278.106Z" fill="#FF668A" stroke="#FF668A" stroke-width="3" stroke-miterlimit="10"/>
<path fill-rule="evenodd" clip-rule="evenodd" d="M71.2598 359.071H402.189V421.024H71.2598V359.071Z" fill="#00B26A"/>
<path d="M92.6036 381.161L94.5255 371.052H97.4317L94.2911 385.271H91.338L89.0255 375.755L86.713 385.271H83.7598L80.6036 371.052H83.5255L85.4473 381.146L87.7911 371.052H90.2755L92.6036 381.161ZM103.4 385.474C101.848 385.474 100.583 385 99.6036 384.052C98.6348 383.094 98.1505 381.823 98.1505 380.24V379.974C98.1505 378.911 98.3536 377.964 98.7598 377.13C99.1765 376.286 99.7598 375.641 100.51 375.193C101.26 374.734 102.119 374.505 103.088 374.505C104.525 374.505 105.661 374.964 106.494 375.88C107.328 376.786 107.744 378.078 107.744 379.755V380.911H101.01C101.104 381.599 101.38 382.151 101.838 382.568C102.296 382.984 102.88 383.193 103.588 383.193C104.671 383.193 105.52 382.797 106.135 382.005L107.51 383.568C107.093 384.161 106.52 384.63 105.791 384.974C105.072 385.307 104.275 385.474 103.4 385.474ZM103.072 376.786C102.51 376.786 102.051 376.979 101.697 377.365C101.354 377.74 101.135 378.276 101.041 378.974H104.963V378.755C104.953 378.13 104.786 377.646 104.463 377.302C104.14 376.958 103.676 376.786 103.072 376.786ZM118.867 380.083C118.867 381.781 118.503 383.104 117.773 384.052C117.055 385 116.05 385.474 114.758 385.474C113.612 385.474 112.695 385.031 112.008 384.146L111.883 385.271H109.336V370.271H112.164V375.646C112.82 374.885 113.675 374.505 114.727 374.505C116.018 374.505 117.029 374.979 117.758 375.927C118.497 376.875 118.867 378.208 118.867 379.927V380.083ZM116.039 379.88C116.039 378.807 115.867 378.026 115.523 377.536C115.19 377.047 114.69 376.802 114.023 376.802C113.128 376.802 112.508 377.172 112.164 377.911V382.083C112.508 382.823 113.133 383.193 114.039 383.193C114.956 383.193 115.555 382.745 115.836 381.849C115.971 381.411 116.039 380.755 116.039 379.88Z" fill="white"/>
<path d="M134.471 374.068H139.08V376.599H134.549V377.677C134.549 381.771 132.32 384.719 127.861 386.521L126.002 384.443C129.96 383.12 131.94 380.917 131.94 377.833V376.599H127.611L127.69 380.583H125.158L125.08 376.599H120.69V374.068H125.065L124.986 369.927H127.049C128.153 370.042 128.309 370.495 127.518 371.286L127.58 374.068H131.861V369.302H134.002C135.106 369.417 135.262 369.87 134.471 370.661V374.068ZM140.455 378.865V376.333H158.69V378.865H140.455ZM172.658 372.115C175.45 375.646 177.44 379.385 178.627 383.333L175.752 384.286C174.387 379.964 172.585 376.49 170.346 373.865L172.658 372.115ZM166.83 374.115C167.716 374.667 167.71 375.12 166.815 375.474C165.908 378.682 164.32 381.76 162.049 384.708L159.549 383.083C161.997 380.135 163.643 376.786 164.486 373.036L166.83 374.115ZM176.018 367.849C176.882 368.578 177.908 369.568 179.096 370.818L177.471 372.318C176.367 371.089 175.335 370.063 174.377 369.24L176.018 367.849ZM174.158 369.021C175.127 369.917 176.153 371 177.236 372.271L175.393 373.63C174.466 372.401 173.471 371.323 172.408 370.396L174.158 369.021ZM193.94 375.255C194.033 376.974 194.033 378.729 193.94 380.521C195.346 381.042 196.898 381.906 198.596 383.115L197.221 385.302C195.908 384.302 194.809 383.589 193.924 383.161C193.924 383.786 193.596 384.422 192.94 385.068C192.242 385.776 191.236 386.13 189.924 386.13C188.611 386.13 187.606 385.776 186.908 385.068C186.304 384.474 186.002 383.703 186.002 382.755C186.002 381.911 186.252 381.245 186.752 380.755C187.45 380.047 188.481 379.693 189.846 379.693C190.554 379.693 191.106 379.74 191.502 379.833C191.585 378.396 191.585 376.911 191.502 375.38L185.69 375.771V373.302L191.299 372.99C191.257 371.813 191.137 370.505 190.94 369.068H193.08C194.341 369.297 194.523 369.708 193.627 370.302C193.669 371.25 193.71 372.109 193.752 372.88L197.986 372.646V375.099L193.94 375.255ZM181.377 385.802C181.127 384.052 181.002 382.203 181.002 380.255C181.002 376.005 181.351 372.464 182.049 369.63L184.19 370.021C185.117 370.417 185.158 370.823 184.315 371.24C183.794 372.917 183.533 375.922 183.533 380.255C183.533 382.203 183.69 383.901 184.002 385.349L181.377 385.802ZM191.486 382.208C190.82 382.01 190.273 381.911 189.846 381.911C189.231 381.911 188.804 382.026 188.565 382.255C188.387 382.443 188.299 382.609 188.299 382.755C188.299 383.057 188.361 383.276 188.486 383.411C188.778 383.693 189.231 383.833 189.846 383.833C190.45 383.833 190.867 383.698 191.096 383.427C191.387 383.094 191.518 382.688 191.486 382.208ZM214.033 374.474C213.044 380.13 209.637 384.25 203.815 386.833L201.799 384.708C207.132 382.531 210.273 379.125 211.221 374.49H205.705C204.559 376.375 203.247 378 201.768 379.365L199.486 377.88C202.403 375.255 204.273 372.198 205.096 368.708L207.346 369.49C208.231 369.927 208.236 370.313 207.361 370.646C207.184 371.219 207.018 371.656 206.861 371.958H211.69L212.58 371.474L214.19 373.099C214.877 373.776 214.825 374.234 214.033 374.474ZM218.783 384.724C224.096 383.349 227.028 380.823 227.58 377.146H215.768V374.615H228.065L228.877 374.349L230.471 375.318C231.117 375.849 231.111 376.281 230.455 376.615C229.611 381.854 226.398 385.307 220.815 386.974L218.783 384.724ZM228.768 372.693H217.174V370.161H228.768V372.693ZM231.908 379.005C237.648 376.599 241.986 373.219 244.924 368.865L246.736 370.411C247.632 371.078 247.445 371.542 246.174 371.802C245.226 373.042 244.007 374.307 242.518 375.599V386.443H239.908V377.724C238.502 378.807 236.466 379.974 233.799 381.224L231.908 379.005ZM257.861 377.865C257.945 381.323 256.08 384.25 252.268 386.646L250.377 384.521C253.606 382.771 255.221 380.464 255.221 377.599V373.833H257.283C258.387 373.958 258.57 374.339 257.83 374.974V376.005C259.236 374.953 260.257 373.99 260.893 373.115L248.611 373.568L248.393 370.958L262.986 370.552L263.736 370.333L265.08 371.958C265.632 372.677 265.46 372.984 264.565 372.88C263.075 374.807 261.132 376.74 258.736 378.677L257.861 377.865ZM282.627 375.677C279.7 381.75 274.986 384.943 268.486 385.255C268.059 386.37 267.58 386.339 267.049 385.161L266.252 382.599C273.21 382.432 277.893 379.568 280.299 374.005L282.627 375.677ZM271.111 376.365C269.528 374.896 267.997 373.672 266.518 372.693L268.346 370.427C269.669 371.24 271.273 372.531 273.158 374.302L271.111 376.365ZM287.83 375.177C290.205 375.865 292.83 376.896 295.705 378.271L294.393 380.802C291.424 379.281 289.236 378.339 287.83 377.974V385.974H285.221V369.536H287.205C288.538 369.651 288.747 370.063 287.83 370.771V375.177ZM296.799 385.083C298.476 382.479 299.82 379.521 300.83 376.208C300.101 376.313 299.049 376.427 297.674 376.552L297.455 373.99C298.674 373.99 300.018 373.922 301.486 373.786C301.903 372.359 302.294 370.667 302.658 368.708L304.752 369.411C306.075 369.964 306.111 370.432 304.861 370.818C304.591 371.766 304.351 372.661 304.143 373.505C304.382 373.464 304.851 373.443 305.549 373.443C306.393 373.443 307.033 373.667 307.471 374.115C308.179 374.813 308.533 376.313 308.533 378.615C308.533 381.75 308.049 383.797 307.08 384.755C306.486 385.359 305.794 385.661 305.002 385.661C303.887 385.661 302.726 384.958 301.518 383.552L303.002 381.505C303.981 382.484 304.622 382.974 304.924 382.974C305.07 382.974 305.21 382.911 305.346 382.786C305.835 382.286 306.08 380.792 306.08 378.302C306.08 376.958 305.966 376.167 305.736 375.927C305.653 375.854 305.434 375.818 305.08 375.818C304.632 375.818 304.085 375.859 303.44 375.943C302.387 379.651 301.044 383 299.408 385.99L296.799 385.083ZM312.861 381.505C311.861 377.901 310.382 375.177 308.424 373.333L310.518 371.833C312.861 374.24 314.466 377.13 315.33 380.505L312.861 381.505ZM320.674 383.755H323.127C325.617 383.755 327.163 383.458 327.768 382.865C328.257 382.365 328.502 381.807 328.502 381.193C328.502 380.682 328.283 380.203 327.846 379.755C327.45 379.37 326.762 379.177 325.783 379.177C323.617 379.177 321.591 380.302 319.705 382.552L317.518 382.333L318.471 373.13L320.58 373.536C321.757 374.005 321.846 374.438 320.846 374.833L320.44 378.661C321.815 377.474 323.726 376.88 326.174 376.88C327.695 376.88 328.908 377.339 329.815 378.255C330.575 379.005 330.955 379.984 330.955 381.193C330.955 382.505 330.471 383.641 329.502 384.599C328.387 385.724 326.315 386.286 323.283 386.286H321.596L320.674 383.755ZM320.096 368.771C321.783 369.188 324.023 369.891 326.815 370.88L325.658 373.193C323.565 372.328 321.356 371.563 319.033 370.896L320.096 368.771ZM343.33 374.115C342.455 379.281 341.361 382.516 340.049 383.818C339.299 384.578 338.502 384.958 337.658 384.958C336.71 384.958 335.966 384.682 335.424 384.13C334.091 382.807 333.424 381.151 333.424 379.161C333.424 376.755 334.273 374.708 335.971 373.021C337.815 371.167 340.07 370.24 342.736 370.24C345.143 370.24 347.033 370.932 348.408 372.318C349.95 373.849 350.721 375.661 350.721 377.755C350.721 380.005 350.002 381.844 348.565 383.271C347.648 384.198 346.169 385.125 344.127 386.052L341.815 383.74C344.002 383.052 345.596 382.214 346.596 381.224C347.502 380.307 347.955 379.203 347.955 377.911C347.955 376.359 347.45 375.073 346.44 374.052C345.429 373.042 344.33 372.568 343.143 372.63V372.615C344.299 373.104 344.361 373.604 343.33 374.115ZM340.705 372.896C339.799 373.104 338.877 373.672 337.94 374.599C336.669 375.88 336.033 377.453 336.033 379.318C336.033 380.401 336.382 381.297 337.08 382.005C337.163 382.078 337.304 382.115 337.502 382.115C337.7 382.115 337.945 381.974 338.236 381.693C339.361 380.557 340.184 377.625 340.705 372.896Z" fill="white"/>
<path d="M93.1817 401.99C93.1817 406.063 91.2025 409.036 87.2442 410.911L84.9942 408.99C88.6609 407.323 90.5202 404.964 90.5723 401.911V393.693H92.6661C93.8015 393.922 93.9734 394.333 93.1817 394.927V401.99ZM85.1348 404.115H82.5255V394.474H84.6661C85.8744 394.599 86.0307 395.01 85.1348 395.708V404.115ZM110.479 398.474C109.489 404.13 106.083 408.25 100.26 410.833L98.2442 408.708C103.578 406.531 106.718 403.125 107.666 398.49H102.15C101.005 400.375 99.6921 402 98.213 403.365L95.9317 401.88C98.8484 399.255 100.718 396.198 101.541 392.708L103.791 393.49C104.676 393.927 104.682 394.313 103.807 394.646C103.63 395.219 103.463 395.656 103.307 395.958H108.135L109.025 395.474L110.635 397.099C111.322 397.776 111.27 398.234 110.479 398.474ZM128.729 405.177V407.708H112.369V405.177H119.166V398.255H113.697V395.724H127.166V398.255H121.775V405.177H128.729ZM140.604 401.677C142.645 403.25 144.869 405.266 147.275 407.724L145.088 409.583C142.744 407.115 140.661 405.182 138.838 403.786C136.953 405.818 134.609 407.76 131.807 409.615L129.682 407.724C135.432 403.974 138.984 400.547 140.338 397.443L132.104 397.974L131.775 395.271L141.229 394.865L142.354 394.583L143.76 396.005C144.489 396.734 144.38 397.182 143.432 397.349C142.494 398.974 141.551 400.417 140.604 401.677ZM152.322 399.177C154.697 399.865 157.322 400.896 160.197 402.271L158.885 404.802C155.916 403.281 153.729 402.339 152.322 401.974V409.974H149.713V393.536H151.697C153.031 393.651 153.239 394.063 152.322 394.771V399.177ZM177.9 407.052C174.786 404.771 171.999 402.536 169.541 400.349C169.312 400.151 169.088 400.052 168.869 400.052C168.671 400.052 168.505 400.12 168.369 400.255C165.963 402.401 164.218 403.917 163.135 404.802L160.947 402.615C162.624 401.615 164.598 400.057 166.869 397.943C167.473 397.401 168.088 397.13 168.713 397.13C169.484 397.13 170.197 397.396 170.854 397.927C174.781 401.188 177.942 403.417 180.338 404.615L177.9 407.052ZM196.65 405.818C196.578 406.641 196.406 407.583 196.135 408.646C195.885 409.74 195.208 410.286 194.104 410.286H190.432C189.223 410.286 188.619 409.708 188.619 408.552V399.865H190.51C191.791 399.865 191.953 400.224 190.994 400.943V407.771C190.994 407.917 191.041 407.99 191.135 407.99H193.4C193.578 407.99 193.687 407.948 193.729 407.865C193.864 407.479 193.999 406.604 194.135 405.24L196.65 405.818ZM182.604 394.708H189.557V392.443H191.682C192.963 392.443 193.124 392.802 192.166 393.521V394.708H199.041V397.005H184.979V403.396C184.979 406.083 184.296 408.453 182.932 410.505L181.088 408.771C182.098 407.146 182.604 405.354 182.604 403.396V394.708ZM188.15 401.833C188.828 402.177 188.932 402.583 188.463 403.052C188.057 405.073 187.572 406.844 187.01 408.365L184.572 407.552C185.354 405.656 185.859 403.615 186.088 401.427L188.15 401.833ZM196.4 401.536C197.536 402.661 198.661 404.313 199.775 406.49L197.51 408.083C196.718 406.188 195.729 404.469 194.541 402.927L196.4 401.536ZM191.197 396.849C192.385 397.786 193.567 398.906 194.744 400.208L192.697 402.146C191.916 400.969 190.833 399.745 189.447 398.474L191.197 396.849ZM201.15 402.036C204.484 401.089 207.4 399.286 209.9 396.63L212.041 397.005C212.687 397.651 212.734 397.979 212.182 397.99C213.4 399.271 216.062 400.432 220.166 401.474L219.369 403.958C217.213 403.417 215.723 402.917 214.9 402.458V403.255H206.275V402.615C205.421 403.229 204.015 403.839 202.057 404.443L201.15 402.036ZM212.213 400.958C212.057 400.875 211.499 400.307 210.541 399.255C209.979 399.974 209.38 400.542 208.744 400.958H212.213ZM201.119 397.568C202.515 396.349 203.604 394.557 204.385 392.193L206.51 392.802C207.145 393.438 207.083 393.813 206.322 393.927L206.166 394.24H210.76V396.302H208.15C208.255 396.49 208.52 397.12 208.947 398.193L206.479 398.896C206.145 397.719 205.864 396.854 205.635 396.302H205.291C204.718 397.448 203.864 398.521 202.729 399.521L201.119 397.568ZM213.51 394.24H219.432V396.302H216.15C216.275 396.469 216.525 397.036 216.9 398.005L214.463 398.927C214.13 397.792 213.796 396.917 213.463 396.302H212.619L211.838 397.708L209.791 396.505C210.645 395.151 211.312 393.635 211.791 391.958L213.854 392.568C214.489 393.203 214.437 393.578 213.697 393.693L213.51 394.24ZM206.854 405.911V407.833H214.479V405.911H206.854ZM204.479 403.849H216.854V410.755H214.479V409.896H206.854V410.99H204.479V403.849ZM229.791 405.505C229.51 405.672 228.994 405.755 228.244 405.755C227.244 405.755 226.473 405.479 225.932 404.927C225.223 404.229 224.869 403.432 224.869 402.536C224.869 401.589 225.223 400.766 225.932 400.068C226.63 399.359 227.505 399.005 228.557 399.005C229.213 399.005 229.676 399.042 229.947 399.115V398.365L221.432 398.896L220.963 396.443L229.947 396.052V392.365H231.791C233.051 392.594 233.229 393.01 232.322 393.615V395.927L238.963 395.458V397.927L232.322 398.24V400.771C232.531 401.708 232.635 402.766 232.635 403.943C232.583 406.755 230.958 409.156 227.76 411.146L225.557 409.521C228.38 407.885 229.791 406.547 229.791 405.505ZM228.713 401.146C228.255 401.146 227.88 401.286 227.588 401.568C227.359 401.807 227.244 402.13 227.244 402.536C227.244 402.891 227.333 403.161 227.51 403.349C227.697 403.526 228.02 403.615 228.479 403.615C228.937 403.615 229.312 403.474 229.604 403.193C229.833 402.953 229.947 402.656 229.947 402.302C229.947 401.948 229.833 401.651 229.604 401.411C229.416 401.234 229.119 401.146 228.713 401.146ZM251.166 408.021C251.645 407.958 252.14 407.677 252.65 407.177C253.192 406.625 253.463 405.885 253.463 404.958C253.463 403.927 253.166 403.109 252.572 402.505C251.968 401.911 250.994 401.615 249.65 401.615C248.015 401.615 246.765 401.927 245.9 402.552C245.046 403.156 243.833 404.359 242.26 406.161L240.307 404.427C244.244 400.49 246.979 397.531 248.51 395.552C247.426 395.688 245.911 395.844 243.963 396.021L243.166 393.38C246.062 393.38 248.473 393.255 250.4 393.005L251.307 392.599L252.354 393.646C253.322 394.531 253.171 395.094 251.9 395.333C250.39 397.031 249.15 398.417 248.182 399.49C248.453 399.427 248.968 399.396 249.729 399.396C251.822 399.396 253.374 399.906 254.385 400.927C255.406 401.938 255.916 403.229 255.916 404.802C255.916 406.427 255.458 407.693 254.541 408.599C253.218 409.932 251.536 410.599 249.494 410.599C247.557 410.599 246.135 410.141 245.229 409.224C244.468 408.474 244.088 407.573 244.088 406.521C244.088 405.781 244.364 405.141 244.916 404.599C245.51 403.995 246.203 403.693 246.994 403.693C248.046 403.693 248.921 404.047 249.619 404.755C250.411 405.547 250.926 406.635 251.166 408.021ZM248.869 408.365C248.713 407.365 248.437 406.661 248.041 406.255C247.749 405.974 247.479 405.833 247.229 405.833C246.926 405.833 246.708 405.896 246.572 406.021C246.395 406.208 246.307 406.401 246.307 406.599C246.307 406.953 246.473 407.302 246.807 407.646C247.255 408.083 247.838 408.302 248.557 408.302C248.765 408.302 248.869 408.323 248.869 408.365ZM268.213 398.115C267.338 403.281 266.244 406.516 264.932 407.818C264.182 408.578 263.385 408.958 262.541 408.958C261.593 408.958 260.848 408.682 260.307 408.13C258.973 406.807 258.307 405.151 258.307 403.161C258.307 400.755 259.156 398.708 260.854 397.021C262.697 395.167 264.953 394.24 267.619 394.24C270.025 394.24 271.916 394.932 273.291 396.318C274.833 397.849 275.604 399.661 275.604 401.755C275.604 404.005 274.885 405.844 273.447 407.271C272.531 408.198 271.052 409.125 269.01 410.052L266.697 407.74C268.885 407.052 270.479 406.214 271.479 405.224C272.385 404.307 272.838 403.203 272.838 401.911C272.838 400.359 272.333 399.073 271.322 398.052C270.312 397.042 269.213 396.568 268.025 396.63V396.615C269.182 397.104 269.244 397.604 268.213 398.115ZM265.588 396.896C264.682 397.104 263.76 397.672 262.822 398.599C261.552 399.88 260.916 401.453 260.916 403.318C260.916 404.401 261.265 405.297 261.963 406.005C262.046 406.078 262.187 406.115 262.385 406.115C262.583 406.115 262.828 405.974 263.119 405.693C264.244 404.557 265.067 401.625 265.588 396.896ZM292.666 404.521C292.208 406.604 291.124 408.589 289.416 410.474L287.025 409.099C288.838 407.391 289.968 405.573 290.416 403.646C288.854 403.063 287.244 402.656 285.588 402.427C284.255 405.313 283.333 407.005 282.822 407.505C282.124 408.214 281.302 408.568 280.354 408.568C279.614 408.568 278.999 408.318 278.51 407.818C277.958 407.276 277.682 406.479 277.682 405.427C277.682 404.219 278.244 403.057 279.369 401.943C280.588 400.714 282.124 400.099 283.979 400.099C284.541 398.661 284.994 397.479 285.338 396.552C284.369 396.792 283.046 397.094 281.369 397.458L280.307 395.083C282.369 394.833 284.166 394.531 285.697 394.177L286.822 393.708L288.322 394.849C289.374 395.484 289.359 395.948 288.275 396.24C287.661 397.323 287.036 398.656 286.4 400.24C287.744 400.417 289.203 400.766 290.775 401.286C290.848 400.391 290.854 398.87 290.791 396.724L292.775 397.13C294.005 397.359 294.166 397.776 293.26 398.38C293.26 399.964 293.218 401.208 293.135 402.115C293.947 402.406 295.13 402.958 296.682 403.771L295.525 406.068C294.192 405.307 293.239 404.792 292.666 404.521ZM283.057 402.396C282.411 402.396 281.76 402.719 281.104 403.365C280.354 404.125 279.979 404.813 279.979 405.427C279.979 405.625 280.041 405.792 280.166 405.927C280.249 406 280.39 406.036 280.588 406.036C280.911 406.036 281.213 405.813 281.494 405.365C281.796 404.906 282.317 403.917 283.057 402.396Z" fill="white"/>
<path d="M34.6949 297.432H37.9136V320.525H34.6949V297.432Z" fill="white"/>
<path d="M33.1831 623.912H36.4018V647.006H33.1831V623.912Z" fill="white"/>
<path d="M507.403 549.882H700.965V594.677H507.403V549.882V549.882Z" fill="#FF668A"/>
<path d="M507.403 594.677H700.965V731.131H507.403V594.677V594.677Z" fill="#6B5353"/>
<path d="M507.403 548.383V732.63" stroke="white" stroke-width="3" stroke-miterlimit="10"/>
<path d="M700.965 548.383V732.63" stroke="white" stroke-width="3" stroke-miterlimit="10"/>
<path d="M505.904 549.882H702.463" stroke="white" stroke-width="3" stroke-miterlimit="10"/>
<path d="M505.904 594.677H702.463" stroke="white" stroke-width="3" stroke-miterlimit="10"/>
<path d="M505.904 731.131H702.463" stroke="white" stroke-width="3" stroke-miterlimit="10"/>
<path d="M583.961 566.819C584.388 566.413 584.878 566.21 585.43 566.21C585.971 566.21 586.445 566.381 586.852 566.725C589.373 568.965 592.701 571.855 596.836 575.397L594.367 577.647C591.326 574.845 588.55 572.298 586.039 570.006C585.623 569.642 585.393 569.46 585.352 569.46C585.206 569.46 584.987 569.626 584.695 569.96C583.102 571.824 581.456 573.673 579.758 575.506L577.617 573.006C579.94 570.746 582.055 568.683 583.961 566.819ZM611.672 569.772C611.297 573.293 610.281 575.881 608.625 577.538C606.99 579.163 604.75 580.496 601.906 581.538L600.328 579.21C603.141 578.282 605.234 577.131 606.609 575.756C608.068 574.308 608.912 571.621 609.141 567.694L611.406 568.428C612.521 568.814 612.609 569.262 611.672 569.772ZM604.078 573.053C603.307 571.335 602.511 569.855 601.688 568.616L604.016 567.397C604.995 568.657 605.849 570.147 606.578 571.866L604.078 573.053ZM599.891 574.303C599.12 572.512 598.297 570.965 597.422 569.663L599.844 568.46C600.771 569.73 601.589 571.236 602.297 572.975L599.891 574.303ZM627.594 566.585C628.073 567.199 627.979 567.626 627.313 567.866C626.906 569.928 626.313 571.767 625.531 573.381L627.547 574.725L625.813 577.272L624.016 575.96C622.547 578.074 620.224 579.928 617.047 581.522L614.328 579.491C617.995 577.97 620.438 576.251 621.656 574.335C620.542 573.616 619.193 572.824 617.609 571.96L619.063 569.788C621 570.652 622.386 571.335 623.219 571.835C623.886 570.48 624.276 569.335 624.391 568.397H619.141C618.182 570.137 616.833 571.871 615.094 573.6L612.813 572.038C615.792 568.954 617.75 565.673 618.688 562.194L621.141 563.21C622.214 563.741 622.156 564.204 620.969 564.6C620.792 565.142 620.646 565.512 620.531 565.71H625.219L626.313 565.319L627.594 566.585ZM626.688 562.569C627.813 563.423 628.984 564.527 630.203 565.881L628.453 567.241C627.297 566.012 626.12 564.902 624.922 563.913L626.688 562.569ZM628.563 561.335C629.646 562.085 630.755 563.131 631.891 564.475L630.172 565.944C629.016 564.652 627.896 563.574 626.813 562.71L628.563 561.335Z" fill="white"/>
<path d="M564.402 662.381H556.199V659.694H573.887V662.381H567.168V663.006C567.168 666.579 565.798 669.61 563.059 672.1L560.668 670.334C563.158 668.365 564.402 665.923 564.402 663.006V662.381ZM559.152 657.381V654.694H570.121V657.381H559.152ZM570.809 653.006C571.705 653.912 572.652 655.095 573.652 656.553L571.777 657.881C570.861 656.558 569.913 655.339 568.934 654.225L570.809 653.006ZM572.777 651.928C573.673 652.897 574.626 654.053 575.637 655.397L573.762 656.725C572.731 655.308 571.772 654.157 570.887 653.272L572.777 651.928ZM576.129 663.85V661.178H595.301V663.85H576.129ZM604.152 655.225C603.975 655.767 603.83 656.136 603.715 656.334H608.402L609.496 655.944L610.777 657.209C611.257 657.824 611.163 658.251 610.496 658.49C610.09 660.553 609.496 662.392 608.715 664.006L610.731 665.35L608.996 667.897L607.199 666.584C605.731 668.699 603.408 670.553 600.231 672.147L597.512 670.115C601.179 668.595 603.621 666.876 604.84 664.959C603.725 664.24 602.376 663.449 600.793 662.584L602.246 660.412C604.184 661.277 605.569 661.959 606.402 662.459C607.069 661.105 607.46 659.959 607.574 659.022H602.324C601.366 660.761 600.017 662.496 598.277 664.225L595.996 662.662C598.975 659.579 600.934 656.298 601.871 652.819L604.324 653.834C605.397 654.365 605.34 654.829 604.152 655.225ZM631.059 669.381C627.382 667.089 624.866 664.767 623.512 662.412V665.522H626.887V667.959H623.512V672.397H620.996V667.959H617.809V665.522H620.996V662.819C619.934 665.173 617.455 667.49 613.559 669.772L612.231 667.272C616.116 665.147 618.746 662.397 620.121 659.022H613.215V656.584H620.996V652.897H623.027C624.236 653.043 624.397 653.428 623.512 654.053V656.584H631.387V659.022H624.402C625.986 661.855 628.632 664.412 632.34 666.694L631.059 669.381ZM637.902 666.975C640.746 664.381 642.694 661.808 643.746 659.256H638.809V656.834H644.387V652.725H646.402C647.58 652.86 647.746 653.246 646.902 653.881V656.834H652.809V659.256H647.559C648.277 661.423 650.236 663.99 653.434 666.959L651.777 669.334C649.142 666.709 647.517 664.756 646.902 663.475V665.85H649.277V668.287H646.902V672.303H644.387V668.287H642.246V665.85H644.387V663.569C643.606 665.287 642.033 667.168 639.668 669.209L637.902 666.975ZM639.527 654.537C639.288 655.787 638.97 656.912 638.574 657.912C639.366 658.214 639.324 658.579 638.449 659.006V672.475H635.934L636.074 663.131C636.126 663.214 635.715 663.694 634.84 664.569L633.199 662.428C635.147 659.793 636.507 656.48 637.277 652.49L639.621 653.35C640.465 654.037 640.434 654.433 639.527 654.537Z" fill="white"/>
<path fill-rule="evenodd" clip-rule="evenodd" d="M551.181 359.055H772.441V421.008H551.181V359.055Z" fill="#00B26A"/>
<path d="M572.525 381.146L574.447 371.036H577.353L574.212 385.255H571.259L568.947 375.74L566.634 385.255H563.681L560.525 371.036H563.447L565.369 381.13L567.712 371.036H570.197L572.525 381.146ZM583.322 385.458C581.77 385.458 580.504 384.984 579.525 384.036C578.556 383.078 578.072 381.807 578.072 380.224V379.958C578.072 378.896 578.275 377.948 578.681 377.115C579.098 376.271 579.681 375.625 580.431 375.177C581.181 374.719 582.04 374.49 583.009 374.49C584.447 374.49 585.582 374.948 586.415 375.865C587.249 376.771 587.665 378.062 587.665 379.74V380.896H580.931C581.025 381.583 581.301 382.135 581.759 382.552C582.218 382.969 582.801 383.177 583.509 383.177C584.593 383.177 585.442 382.781 586.056 381.99L587.431 383.552C587.014 384.146 586.442 384.615 585.712 384.958C584.994 385.292 584.197 385.458 583.322 385.458ZM582.994 376.771C582.431 376.771 581.973 376.963 581.619 377.349C581.275 377.724 581.056 378.26 580.962 378.958H584.884V378.74C584.874 378.115 584.707 377.63 584.384 377.286C584.061 376.943 583.598 376.771 582.994 376.771ZM598.789 380.068C598.789 381.766 598.424 383.088 597.695 384.036C596.976 384.984 595.971 385.458 594.679 385.458C593.533 385.458 592.617 385.016 591.929 384.13L591.804 385.255H589.257V370.255H592.085V375.63C592.742 374.87 593.596 374.49 594.648 374.49C595.94 374.49 596.95 374.963 597.679 375.911C598.419 376.859 598.789 378.193 598.789 379.911V380.068ZM595.96 379.865C595.96 378.792 595.789 378.01 595.445 377.521C595.111 377.031 594.611 376.786 593.945 376.786C593.049 376.786 592.429 377.156 592.085 377.896V382.068C592.429 382.807 593.054 383.177 593.96 383.177C594.877 383.177 595.476 382.729 595.757 381.833C595.893 381.396 595.96 380.74 595.96 379.865Z" fill="white"/>
<path d="M614.392 374.052H619.001V376.583H614.47V377.661C614.47 381.755 612.241 384.703 607.783 386.505L605.923 384.427C609.882 383.104 611.861 380.901 611.861 377.818V376.583H607.533L607.611 380.568H605.08L605.001 376.583H600.611V374.052H604.986L604.908 369.911H606.97C608.074 370.026 608.231 370.479 607.439 371.271L607.501 374.052H611.783V369.286H613.923C615.027 369.401 615.184 369.854 614.392 370.646V374.052ZM620.376 378.849V376.318H638.611V378.849H620.376ZM652.58 372.099C655.371 375.63 657.361 379.37 658.548 383.318L655.673 384.271C654.309 379.948 652.507 376.474 650.267 373.849L652.58 372.099ZM646.751 374.099C647.637 374.651 647.632 375.104 646.736 375.458C645.83 378.667 644.241 381.745 641.97 384.693L639.47 383.068C641.918 380.12 643.564 376.771 644.408 373.021L646.751 374.099ZM655.939 367.833C656.803 368.562 657.83 369.552 659.017 370.802L657.392 372.302C656.288 371.073 655.257 370.047 654.298 369.224L655.939 367.833ZM654.08 369.005C655.048 369.901 656.074 370.984 657.158 372.255L655.314 373.615C654.387 372.385 653.392 371.307 652.33 370.38L654.08 369.005ZM659.767 385.068C661.444 382.463 662.788 379.505 663.798 376.193C663.069 376.297 662.017 376.411 660.642 376.536L660.423 373.974C661.642 373.974 662.986 373.906 664.455 373.771C664.871 372.344 665.262 370.651 665.626 368.693L667.72 369.396C669.043 369.948 669.08 370.417 667.83 370.802C667.559 371.75 667.319 372.646 667.111 373.49C667.35 373.448 667.819 373.427 668.517 373.427C669.361 373.427 670.001 373.651 670.439 374.099C671.147 374.797 671.501 376.297 671.501 378.599C671.501 381.734 671.017 383.781 670.048 384.74C669.455 385.344 668.762 385.646 667.97 385.646C666.856 385.646 665.694 384.943 664.486 383.536L665.97 381.49C666.949 382.469 667.59 382.958 667.892 382.958C668.038 382.958 668.178 382.896 668.314 382.771C668.803 382.271 669.048 380.776 669.048 378.286C669.048 376.943 668.934 376.151 668.705 375.911C668.621 375.838 668.402 375.802 668.048 375.802C667.6 375.802 667.053 375.844 666.408 375.927C665.356 379.635 664.012 382.984 662.376 385.974L659.767 385.068ZM675.83 381.49C674.83 377.885 673.35 375.161 671.392 373.318L673.486 371.818C675.83 374.224 677.434 377.115 678.298 380.49L675.83 381.49ZM683.642 383.74H686.095C688.585 383.74 690.132 383.443 690.736 382.849C691.225 382.349 691.47 381.792 691.47 381.177C691.47 380.667 691.251 380.187 690.814 379.74C690.418 379.354 689.731 379.161 688.751 379.161C686.585 379.161 684.559 380.286 682.673 382.536L680.486 382.318L681.439 373.115L683.548 373.521C684.725 373.99 684.814 374.422 683.814 374.818L683.408 378.646C684.783 377.458 686.694 376.865 689.142 376.865C690.663 376.865 691.876 377.323 692.783 378.24C693.543 378.99 693.923 379.969 693.923 381.177C693.923 382.49 693.439 383.625 692.47 384.583C691.356 385.708 689.283 386.271 686.251 386.271H684.564L683.642 383.74ZM683.064 368.755C684.751 369.172 686.991 369.875 689.783 370.865L688.626 373.177C686.533 372.312 684.324 371.547 682.001 370.88L683.064 368.755ZM702.205 381.052C702.111 382.073 702.303 382.828 702.783 383.318C703.283 383.807 703.996 384.052 704.923 384.052C706.163 384.052 706.981 383.859 707.376 383.474C707.762 383.078 707.955 382.391 707.955 381.411C707.955 380.672 707.762 379.62 707.376 378.255L709.845 377.911C710.272 379.641 710.486 380.781 710.486 381.333C710.486 383.062 710.053 384.354 709.189 385.208C708.283 386.125 706.835 386.583 704.845 386.583C703.22 386.583 701.928 386.099 700.97 385.13C700.043 384.213 699.637 382.963 699.751 381.38L699.876 379.474H695.923V377.177H700.189L700.408 374.943H696.783V372.646H700.72L701.111 368.146L703.283 368.427C704.512 368.771 704.658 369.203 703.72 369.724L703.22 372.646H706.189V374.943H702.861L702.642 377.177H706.345V379.474H702.33L702.205 381.052Z" fill="white"/>
<path d="M573.103 401.974C573.103 406.047 571.124 409.021 567.165 410.896L564.915 408.974C568.582 407.307 570.442 404.948 570.494 401.896V393.677H572.587C573.723 393.906 573.895 394.318 573.103 394.911V401.974ZM565.056 404.099H562.447V394.458H564.587C565.796 394.583 565.952 394.995 565.056 395.693V404.099ZM590.4 398.458C589.41 404.115 586.004 408.234 580.181 410.818L578.165 408.693C583.499 406.516 586.639 403.109 587.587 398.474H582.072C580.926 400.359 579.613 401.984 578.134 403.349L575.853 401.865C578.77 399.24 580.639 396.182 581.462 392.693L583.712 393.474C584.598 393.911 584.603 394.297 583.728 394.63C583.551 395.203 583.384 395.641 583.228 395.943H588.056L588.947 395.458L590.556 397.083C591.244 397.76 591.192 398.219 590.4 398.458ZM608.65 405.161V407.693H592.29V405.161H599.087V398.24H593.619V395.708H607.087V398.24H601.697V405.161H608.65ZM620.525 401.661C622.567 403.234 624.79 405.25 627.197 407.708L625.009 409.568C622.665 407.099 620.582 405.167 618.759 403.771C616.874 405.802 614.53 407.745 611.728 409.599L609.603 407.708C615.353 403.958 618.905 400.531 620.259 397.427L612.025 397.958L611.697 395.255L621.15 394.849L622.275 394.568L623.681 395.99C624.41 396.719 624.301 397.167 623.353 397.333C622.415 398.958 621.473 400.401 620.525 401.661ZM632.244 399.161C634.619 399.849 637.244 400.88 640.119 402.255L638.806 404.786C635.837 403.266 633.65 402.323 632.244 401.958V409.958H629.634V393.521H631.619C632.952 393.635 633.16 394.047 632.244 394.755V399.161ZM647.525 399.208C647.546 399.115 647.863 399.068 648.478 399.068C649.27 399.068 649.91 399.318 650.4 399.818C650.785 400.203 650.999 400.682 651.04 401.255C652.27 400.797 654.009 400.213 656.259 399.505L657.04 402.224C654.738 402.578 652.801 403.057 651.228 403.661V407.224H648.853V404.646C647.718 405.177 646.931 405.656 646.494 406.083C646.004 406.583 645.759 407.062 645.759 407.521C645.759 407.719 645.874 407.937 646.103 408.177C646.395 408.458 647.004 408.599 647.931 408.599H654.9V410.896H647.853C646.072 410.896 644.806 410.516 644.056 409.755C643.452 409.161 643.15 408.417 643.15 407.521C643.15 406.573 643.53 405.724 644.29 404.974C645.363 403.891 646.853 402.958 648.759 402.177C648.728 401.854 648.645 401.62 648.509 401.474C648.374 401.349 648.025 401.286 647.462 401.286C646.525 401.286 644.931 402.276 642.681 404.255L640.712 402.286C643.389 400.641 645.051 399.151 645.697 397.818C644.707 397.891 643.363 397.99 641.665 398.115L641.181 395.724C643.379 395.661 645.223 395.583 646.712 395.49C646.9 395.042 647.207 393.963 647.634 392.255L649.54 392.755C650.707 393.224 650.775 393.667 649.744 394.083C649.577 394.635 649.436 395.057 649.322 395.349C650.759 395.224 652.468 395.01 654.447 394.708L654.806 397.193C652.483 397.37 650.384 397.531 648.509 397.677C648.04 398.604 647.712 399.115 647.525 399.208ZM662.009 397.771C661.176 396.49 660.207 395.427 659.103 394.583L660.947 392.849C662.322 393.859 663.28 394.896 663.822 395.958L662.009 397.771ZM658.025 408.693L660.806 407.052V402.458H658.306V400.161H663.181V406.724C664.223 407.766 665.494 408.286 666.994 408.286H677.212L676.603 410.583H666.759C664.936 410.583 663.348 409.932 661.994 408.63L659.29 411.333L658.025 408.693ZM676.072 402.38H670.712V402.427C672.66 403.302 674.384 404.432 675.884 405.818L674.322 408.255C672.405 406.276 670.936 405.057 669.915 404.599C669.259 405.807 667.66 407.151 665.119 408.63L663.775 406.255C666.608 404.838 668.119 403.547 668.306 402.38H663.462V400.083H668.462V398.318H664.087V396.021H666.525C666.202 395.469 665.54 394.729 664.54 393.802L666.65 392.396C667.556 393.24 668.395 394.307 669.165 395.599L668.603 396.021H669.79L671.728 391.99L673.869 392.958C674.494 393.583 674.415 393.953 673.634 394.068L672.353 396.021H675.447V398.318H670.837V400.083H676.072V402.38ZM677.869 401.505C679.942 399.047 681.171 395.984 681.556 392.318L683.915 392.943C684.509 393.526 684.483 393.911 683.837 394.099C683.598 395.463 683.322 396.588 683.009 397.474C684.009 397.568 684.014 397.943 683.025 398.599V410.974H680.65L680.775 401.943C680.827 402.005 680.426 402.536 679.572 403.536L677.869 401.505ZM693.15 406.286H687.009V407.74H693.15V406.286ZM684.634 403.99H695.525V410.74H693.15V410.036H687.009V410.974H684.634V403.99ZM685.103 403.474V401.177H694.744V403.474H685.103ZM685.103 400.74V398.443H694.744V400.74H685.103ZM683.306 395.786H696.697V398.083H683.306V395.786ZM685.103 392.974H694.744V395.271H685.103V392.974ZM698.54 393.755H716.54V396.286H714.119V408.693C714.119 409.953 713.514 410.583 712.306 410.583H709.306L708.853 408.052H711.603C711.603 408.115 711.572 408.146 711.509 408.146V396.286H698.54V393.755ZM709.665 406.599H707.056V405.896H703.572V407.38H700.962V398.208H709.665V406.599ZM707.056 400.505H703.572V403.599H707.056V400.505ZM725.978 393.802C727.134 395.073 728.181 396.49 729.119 398.052L726.947 399.318L726.244 398.255L719.853 398.911C719.749 399.599 719.379 399.62 718.744 398.974L718.119 396.49H720.462L722.056 392.193L724.462 392.771C725.108 393.417 725.046 393.797 724.275 393.911L722.884 396.365L725.04 396.224L724.04 394.896L725.978 393.802ZM722.165 401.208V401.724H725.025V401.208H722.165ZM722.165 404.021V404.536H725.025V404.021H722.165ZM727.4 398.911V409.161C727.4 410.266 726.848 410.818 725.744 410.818H724.072L723.712 408.521H725.197C725.197 408.635 725.139 408.693 725.025 408.693V406.833H722.165V410.896H719.79V398.911H727.4ZM730.462 401.958C731.577 402.094 731.728 402.453 730.915 403.036V404.286L735.134 402.724L736.134 404.411C736.27 405.38 735.962 405.651 735.212 405.224L730.915 406.349V408.224C730.915 408.318 730.936 408.365 730.978 408.365H734.103C734.228 408.365 734.301 408.297 734.322 408.161L734.634 406.427L737.072 406.88L736.697 409.083C736.499 410.135 735.921 410.661 734.962 410.661H730.353C729.145 410.661 728.54 410.083 728.54 408.927V401.958H730.462ZM735.822 396.036C735.957 397.016 735.655 397.292 734.915 396.865L730.915 397.99V399.552C730.915 399.646 730.936 399.693 730.978 399.693H734.103C734.176 399.693 734.223 399.604 734.244 399.427L734.447 397.583L736.884 398.052L736.697 400.146C736.561 401.375 735.931 401.99 734.806 401.99H730.353C729.145 401.99 728.54 401.411 728.54 400.255V392.896H730.462C731.577 393.031 731.728 393.391 730.915 393.974V395.88L734.65 394.286L735.822 396.036Z" fill="white"/>
<path d="M340.89 593.874L508.102 592.583" stroke="#6B5353" stroke-width="3" stroke-miterlimit="10" stroke-linejoin="round" stroke-dasharray="3 9"/>
<path d="M342.69 490.93L521.745 489.639" stroke="#6B5353" stroke-width="3" stroke-miterlimit="10" stroke-linejoin="round" stroke-dasharray="3 9"/>
<path d="M517.467 531.803V508.559" stroke="#FF668A" stroke-width="3" stroke-miterlimit="10" stroke-linejoin="round"/>
<path fill-rule="evenodd" clip-rule="evenodd" d="M512.512 531.803L517.467 545.417L522.422 531.803H512.512Z" fill="#FF668A" stroke="#FF668A" stroke-width="3" stroke-miterlimit="10"/>
<path fill-rule="evenodd" clip-rule="evenodd" d="M522.422 508.559L517.467 494.945L512.512 508.559H522.422Z" fill="#FF668A" stroke="#FF668A" stroke-width="3" stroke-miterlimit="10"/>
<path fill-rule="evenodd" clip-rule="evenodd" d="M279.798 367.092L292.144 337.801L304.491 367.092H279.798Z" fill="#00B26A"/>
<path fill-rule="evenodd" clip-rule="evenodd" d="M560.882 535.307L527.181 520.661L560.882 506.016V535.307Z" fill="#00B26A"/>
<path d="M517.1 311.68L709.001 280.576" stroke="#FF668A" stroke-width="3" stroke-miterlimit="10" stroke-linejoin="round"/>
<path fill-rule="evenodd" clip-rule="evenodd" d="M516.307 306.789L503.661 313.859L517.893 316.572L516.307 306.789Z" fill="#FF668A" stroke="#FF668A" stroke-width="3" stroke-miterlimit="10"/>
<path fill-rule="evenodd" clip-rule="evenodd" d="M591.82 369.682L604.167 340.391L616.513 369.682H591.82Z" fill="#00B26A"/>
</g>
<defs>
<clipPath id="clip0_61_149">
<rect width="802.136" height="769.375" fill="white"/>
</clipPath>
</defs>
</svg>
